<svg width="116" height="88" viewBox="0 0 116 88" fill="none" xmlns="http://www.w3.org/2000/svg">
<path d="M24.6263 38.3178C24.6263 48.2589 32.6852 56.3178 42.6263 56.3178L69.6263 56.3178C72.3878 56.3178 74.6263 54.0792 74.6263 51.3178L74.6263 17.3178C74.6263 11.795 70.1492 7.31781 64.6263 7.31781L29.6263 7.31781C26.8649 7.31781 24.6263 9.55639 24.6263 12.3178L24.6263 38.3178Z" fill="#FFF1DA"/>
<path d="M73.2092 52.2714C71.8509 52.476 70.528 52.9554 69.3226 53.6795C66.1822 55.5134 64.3556 58.3548 65.2429 60.0255C66.1302 61.6962 69.3952 61.563 72.5356 59.7292C73.7572 59.0356 74.8424 58.1092 75.7243 57.007C76.1336 56.4731 76.2069 55.7711 75.9115 55.2168L74.7589 53.0464C74.4656 52.4906 73.8574 52.1868 73.2092 52.2714Z" fill="#D5D6DB"/>
<path d="M65.3225 25.275C64.3376 25.4235 63.3782 25.7713 62.5041 26.2965C60.2275 27.6259 58.9022 29.6862 59.5451 30.8966C60.1879 32.1071 62.5564 32.0103 64.8327 30.681C65.7185 30.1778 66.5052 29.5057 67.1449 28.7064C67.4413 28.3194 67.4943 27.8107 67.2802 27.4089L66.4456 25.8373C66.2332 25.4344 65.7925 25.2138 65.3225 25.275Z" fill="#D5D6DB"/>
<path d="M52.5079 25.4842C52.2887 25.4402 52.0549 25.4817 51.8522 25.6001L46.505 28.7147C46.0577 28.9743 45.8789 29.5316 46.1059 29.9597C46.1579 30.0578 46.2289 30.1438 46.3151 30.2127L59.4999 40.8199L77.33 30.4343L52.5079 25.4842Z" fill="#029BC5"/>
<path d="M108.883 26.9306L60.3334 56.4593L31.6248 66.5572L16.9903 68.4743L15.3872 65.2958L96.3103 17.1614C98.722 15.7198 101.407 14.9428 104.093 14.9094C105.27 14.9018 106.432 15.0492 107.551 15.3477C108.544 15.6036 109.485 16.0103 110.347 16.5554C111.309 17.1718 113.141 17.397 113.733 18.5064C113.735 18.5049 115.125 23.4797 108.883 26.9306V26.9306Z" fill="#E1E6E9"/>
<path d="M61.0058 50.6254L39.9857 84.9293C39.7231 85.414 39.8783 85.9958 40.3319 86.2287C40.6103 86.3716 40.9511 86.3543 41.2376 86.1827L46.5832 82.9874C47.6114 82.3725 48.522 81.5572 49.2588 80.5919L90.0078 32.4582L61.0058 50.6254Z" fill="#029BC5"/>
<path d="M8.01459 49.8111C7.66431 49.6587 7.2476 49.6882 6.89597 49.8899L2.48087 52.423C1.87928 52.7679 1.63998 53.5069 1.94619 54.074C2.00453 54.1818 2.08029 54.2787 2.17107 54.3608L14.554 65.601L27.56 58.3034L8.01459 49.8111Z" fill="#029BC5"/>
<path d="M18.6984 66.8299L12.0289 76.3653C11.9311 76.5021 11.9539 76.6867 12.0797 76.7772C12.1704 76.8424 12.2944 76.8429 12.3952 76.7785L16.5249 74.302C16.5569 74.2828 16.586 74.2577 16.61 74.2283L26.3533 62.2444L18.6984 66.8299Z" fill="#029BC5"/>
<path d="M106.733 15.2777C105.578 14.9836 104.38 14.84 103.168 14.8497C101.987 16.4951 101.232 18.3921 100.978 20.3514C100.96 20.7477 101.263 21.0598 101.656 21.0486C101.778 21.045 101.9 21.0099 102.009 20.9465L109.617 16.4707C108.727 15.9314 107.756 15.5298 106.733 15.2777Z" fill="#029BC5"/>
<path d="M90.1532 23.6882L95.1141 20.9462L99.7468 29.2102L94.7859 31.9522L90.1532 23.6882Z" fill="#D5D6DB"/>
<path d="M87.0236 27.108C86.4274 27.4388 86.1913 28.1558 86.4968 28.7093L86.9917 29.6059C87.3171 30.1478 88.0557 30.3037 88.6416 29.9542C89.1992 29.6213 89.4217 28.9457 89.1503 28.4081L88.6553 27.5115C88.3501 26.9585 87.6198 26.7777 87.0236 27.108V27.108Z" fill="#3A556A"/>
<path d="M82.5591 29.8804C81.9629 30.2113 81.7268 30.9282 82.0323 31.4817L82.5273 32.3784C82.8526 32.9202 83.5912 33.0762 84.1771 32.7266C84.7347 32.3937 84.9572 31.7182 84.6858 31.1806L84.1908 30.2839C83.8854 29.7311 83.1551 29.5503 82.5591 29.8804V29.8804Z" fill="#3A556A"/>
<path d="M78.0933 32.6537C77.4977 32.9851 77.2625 33.7013 77.5677 34.2543L78.0627 35.1509C78.388 35.6927 79.1266 35.8487 79.7125 35.4992C80.2701 35.1663 80.4926 34.4908 80.2212 33.9532L79.7262 33.0565C79.4208 32.5031 78.6897 32.3228 78.0933 32.6537V32.6537Z" fill="#3A556A"/>
<path d="M73.629 35.4261C73.0335 35.7575 72.7983 36.4736 73.1035 37.0266L73.5984 37.9233C73.9238 38.4652 74.6624 38.6211 75.2483 38.2716C75.8059 37.9387 76.0283 37.2631 75.7569 36.7255L75.262 35.8289C74.9563 35.2755 74.2253 35.0952 73.629 35.4261V35.4261Z" fill="#3A556A"/>
<path d="M69.165 38.1985C68.5691 38.5298 68.3338 39.2459 68.6392 39.7989L69.1344 40.6955C69.4397 41.2483 70.1704 41.4284 70.7664 41.0979C71.3625 40.7673 71.5982 40.0513 71.2929 39.4986L70.7977 38.602C70.4932 38.0488 69.7627 37.868 69.1663 38.1978C69.1658 38.1981 69.1656 38.1982 69.165 38.1985Z" fill="#3A556A"/>
<path d="M64.7007 40.9709C64.1048 41.3023 63.8695 42.0184 64.1749 42.5714L64.6701 43.468C64.9753 44.0207 65.706 44.2008 66.3021 43.8703C66.8981 43.5398 67.1338 42.8238 66.8285 42.2711L66.3333 41.3744C66.0288 40.8213 65.2984 40.6404 64.702 40.9702C64.7014 40.9705 64.7009 40.9708 64.7007 40.9709Z" fill="#3A556A"/>
<path d="M60.2361 43.7435C59.6402 44.0748 59.4048 44.7909 59.7102 45.3439L60.2054 46.2405C60.5115 46.7928 61.2425 46.9718 61.8379 46.6407C62.4323 46.3102 62.6675 45.5957 62.3636 45.0437L61.8684 44.1471C61.5633 43.594 60.8326 43.4133 60.2361 43.7435Z" fill="#3A556A"/>
<path d="M55.7715 46.516C55.1756 46.8473 54.9402 47.5635 55.2456 48.1164L55.7408 49.0131C56.0469 49.5654 56.7779 49.7444 57.3733 49.4133C57.9677 49.0828 58.2029 48.3682 57.899 47.8162L57.4038 46.9196C57.0987 46.3665 56.368 46.1858 55.7715 46.516Z" fill="#3A556A"/>
<path d="M51.3071 49.2884C50.7112 49.6198 50.4759 50.3359 50.7813 50.8889L51.2765 51.7855C51.5825 52.3378 52.3135 52.5168 52.9089 52.1857C53.5033 51.8552 53.7385 51.1407 53.4347 50.5887L52.9395 49.6921C52.6341 49.1391 51.9034 48.9584 51.3071 49.2884Z" fill="#3A556A"/>
<path d="M46.8413 52.0616C46.2453 52.3921 46.0096 53.1082 46.3148 53.6609L46.3155 53.6621L46.8107 54.5587C47.1167 55.111 47.8477 55.29 48.4431 54.959C49.0375 54.6284 49.2727 53.9139 48.9688 53.3619L48.4736 52.4653C48.1685 51.9122 47.4378 51.7314 46.8413 52.0616Z" fill="#3A556A"/>
<path d="M42.3782 54.8333C41.7821 55.1638 41.5464 55.8798 41.8517 56.4326L41.8523 56.4337L42.3475 57.3303C42.6536 57.8826 43.3846 58.0617 43.98 57.7306C44.5744 57.4001 44.8096 56.6855 44.5058 56.1336L44.0106 55.237C43.7052 54.684 42.9745 54.5033 42.3782 54.8333Z" fill="#3A556A"/>
</svg>
