<svg width="376" height="60" viewBox="0 0 376 60" fill="none" xmlns="http://www.w3.org/2000/svg">
<path d="M54.8283 1.46204L55.7692 1.30386L53.9382 1.07708L54.8159 0.911084C55.6961 0.912602 56.8364 1.16134 57.457 1.02917C57.5328 0.90121 56.5744 0.860143 56.3298 0.75819C56.1134 0.653691 55.9368 0.549872 55.8021 0.447977C56.2814 0.449077 56.8084 0.473723 57.3517 0.520467C58.0825 0.596815 58.7994 0.63393 59.4231 0.627712C60.6986 0.648334 61.9308 0.627762 63.3175 0.632294L62.8561 0.324331L64.6433 0.396377C64.8327 0.419837 65.0585 0.382108 65.2446 0.411133C66.7934 0.656707 67.4488 0.522888 68.1923 0.411927C68.3448 0.383219 68.5284 0.361778 68.7384 0.34818C70.8046 0.407005 72.6677 0.751223 74.5284 0.927934C74.8786 0.973051 75.2145 1.03096 75.5123 1.09757C76.1595 1.22705 76.8794 1.33276 77.6062 1.40503C78.3329 1.47731 79.0433 1.51384 79.6724 1.51129C81.0636 1.50843 82.6353 1.59407 84.2355 1.75992C84.7114 1.81455 85.1875 1.85059 85.6336 1.86574C86.0798 1.88089 86.4861 1.87483 86.8266 1.84793L87.9085 2.02373C88.3774 1.95239 88.972 1.91325 89.6563 1.90869C90.3406 1.90413 91.1001 1.93423 91.889 1.99717C92.7296 2.06545 93.5834 2.11148 94.4556 2.18366C96.2572 2.32168 98.0106 2.40608 99.6612 2.43425C102.119 2.51775 104.521 2.5823 107.001 2.68639C108.552 2.73664 110.064 2.76427 111.527 2.76915C113.279 2.78881 115.174 2.88395 117.121 3.04998C117.029 3.20576 116.175 3.15974 115.602 3.15447C113.754 3.12857 111.862 3.06148 109.96 3.01108C109.103 2.9914 108.27 2.98395 107.466 2.98878C106.12 2.98232 104.702 2.94081 103.235 2.86496C100.918 2.7815 98.675 2.74139 96.5289 2.74502C96.3606 2.75119 96.2065 2.76212 96.069 2.77764C96.0403 2.79107 96.0346 2.80802 96.0525 2.82685C96.0704 2.84567 96.1113 2.86576 96.1712 2.88516C96.2311 2.90457 96.3081 2.92265 96.3947 2.93769C96.4814 2.95272 96.5748 2.9642 96.6661 2.97103C97.5185 3.0766 98.434 3.18999 99.2378 3.20594C99.2689 3.20713 99.302 3.20985 99.3347 3.21391C99.3675 3.21797 99.3991 3.22326 99.4272 3.2294C101.227 3.45227 102.706 3.41455 104.108 3.45082C106.435 3.54882 108.679 3.59459 110.805 3.58745C111.126 3.58794 111.473 3.60068 111.833 3.62521C114.059 3.72466 116.141 3.73578 117.981 3.65808C118.738 3.63839 119.442 3.59419 120.256 3.59346C120.757 3.59041 121.193 3.56221 121.538 3.51054C121.883 3.45886 122.13 3.38478 122.264 3.29275C122.607 3.34121 122.956 3.38439 123.305 3.42178C123.514 3.44316 123.715 3.44884 123.866 3.43765C124.017 3.42646 124.108 3.39924 124.121 3.3615C124.183 3.25579 123.706 3.20271 123.293 3.15744C123.542 3.13477 123.823 3.12143 124.13 3.11775C125.854 3.0936 127.703 3.1221 129.637 3.20265C131.138 3.29906 132.337 3.22059 133.917 3.35654C134.107 3.38 134.262 3.34557 134.437 3.3373C134.891 3.29376 135.458 3.28398 136.087 3.3088C136.716 3.33362 137.388 3.3923 138.046 3.47976C138.865 3.24083 140.635 3.51378 141.942 3.53831C142.345 3.65982 141.883 3.63845 141.863 3.67184C141.843 3.70522 141.863 3.67183 141.705 3.65228C140.4 3.82435 138.612 3.86187 136.593 3.75957C136.219 3.75999 135.863 3.76783 135.528 3.78301C135.021 3.80449 134.449 3.80234 133.838 3.77667C133.169 3.75781 132.556 3.76676 132.026 3.8031C131.721 3.80251 131.463 3.82072 131.276 3.85604C131.09 3.89137 130.98 3.94267 130.957 4.00518C131.161 4.05337 131.386 4.09746 131.625 4.13571C132.873 4.28673 134.118 4.34924 135.114 4.31094C136.847 4.24496 138.91 4.30935 140.753 4.28682C141.999 4.2777 143.325 4.30369 144.706 4.36432C144.706 4.36432 144.67 4.42552 144.666 4.43108C144.83 4.45758 145.001 4.47884 145.172 4.49364C145.172 4.49364 145.172 4.49364 145.188 4.46583C145.112 4.43911 145.01 4.41398 144.892 4.39334L144.482 4.34251C144.761 4.32928 145.021 4.2899 145.312 4.31396C145.924 4.35867 146.51 4.37754 147.033 4.36946C147.556 4.36138 148.006 4.32651 148.356 4.26694C148.976 4.19059 149.747 4.15587 150.619 4.16502C151.287 4.15669 151.931 4.13877 152.548 4.11137C152.548 4.11137 152.588 4.04461 152.88 4.00913C152.603 3.96537 152.315 3.92963 152.028 3.90356C150.779 3.83843 149.526 3.77887 148.299 3.73434C147.847 3.72953 147.422 3.73699 147.032 3.75658C145.952 3.7795 144.738 3.74697 143.462 3.66089C143.462 3.66089 143.21 3.62961 143.084 3.61397C143.442 3.46721 144.676 3.61413 145.176 3.51475C145.479 3.51655 146.014 3.52905 145.996 3.50289C145.954 3.46797 145.949 3.43554 145.981 3.40791C146.013 3.38028 146.082 3.35814 146.181 3.34308C146.281 3.32802 146.409 3.3204 146.558 3.32079C146.706 3.32118 146.87 3.32956 147.038 3.34532C148.443 3.43058 149.767 3.45429 150.928 3.415C151.368 3.41576 151.861 3.44103 152.298 3.44735C152.565 3.45497 152.81 3.45073 153.017 3.43488C154.072 3.31814 155.492 3.30961 157.064 3.41058C157.824 3.44688 158.533 3.45174 159.157 3.4249C159.6 3.42009 159.788 3.50309 160.104 3.54219L161.444 3.62462L159.723 3.7279C160.091 3.96458 160.383 4.04262 160.984 4.05737C161.862 4.07964 162.716 4.0897 163.542 4.08749C164.153 4.08554 164.658 4.03457 165.485 4.1251C165.631 4.13987 165.772 4.14465 165.884 4.13864C166.853 4.05827 168.02 4.03982 169.305 4.08456C169.97 3.93405 171.103 4.08039 172.152 4.19829C172.49 4.08492 171.877 4.03288 171.511 3.9637C172.388 3.97078 173.272 3.96674 174.177 3.98329C174.449 3.97727 174.76 3.98758 175.086 4.01341C175.412 4.03924 175.743 4.07989 176.054 4.13218C176.205 4.16597 176.388 4.1914 176.564 4.20319C176.74 4.21498 176.896 4.21223 176.999 4.19551C177.469 4.14619 178.221 4.19161 178.61 4.10831C178.748 4.08916 178.945 4.08648 179.166 4.10076C179.387 4.11503 179.618 4.14534 179.817 4.18623C179.599 4.19899 179.405 4.21909 179.24 4.24607C178.645 4.33372 178.864 4.48019 179.619 4.69312C180.778 4.68141 181.962 4.68473 183.036 4.6446C183.635 4.60858 184.369 4.61984 185.155 4.67712C185.941 4.73441 186.748 4.83544 187.486 4.96886C187.753 5.02017 188.058 5.0557 188.339 5.06841C188.62 5.08112 188.858 5.07007 189.005 5.03745C189.096 4.99973 189.124 4.95198 189.087 4.89836L188.329 4.80453C188.329 4.80453 188.359 4.75445 188.366 4.74333L189.455 4.73491C190.031 4.73462 190.632 4.74937 191.177 4.74517C191.977 4.71722 192.891 4.7328 193.861 4.79093C194.756 4.85053 195.636 4.89559 196.492 4.92569C197.321 4.95668 197.922 4.85789 198.71 4.84212C199.307 4.83023 199.963 4.84293 200.654 4.87975C201.847 4.94503 202.942 4.94516 203.839 4.8801C204.885 5.23062 205.393 5.28761 206.364 5.1929L206.821 5.16584L206.946 5.24102L207.295 5.22449C207.947 5.20976 208.6 5.19504 209.281 5.18979C210.227 5.22232 211.25 5.30984 212.248 5.4438C212.437 5.46726 212.695 5.54697 212.861 5.60937C213.028 5.67178 213.39 5.86004 213.657 5.98259C213.366 6.07206 213.045 6.15761 212.814 6.26046C212.791 6.27803 212.793 6.29898 212.821 6.32163C212.848 6.34428 212.9 6.36799 212.972 6.39087C213.045 6.41374 213.135 6.43513 213.236 6.45333C213.338 6.47153 213.447 6.48602 213.556 6.49565C213.768 6.51639 213.978 6.53021 214.176 6.53656C215.151 6.5475 216.085 6.53937 216.969 6.51224C217.291 6.47398 217.733 6.47034 218.224 6.50192C218.715 6.5335 219.227 6.59848 219.678 6.68655C220.834 6.63368 222.178 6.6493 223.616 6.73233C225.137 6.68183 226.974 6.78396 228.395 6.67331C228.362 6.72895 228.509 6.82473 228.713 6.87992C229.037 6.96375 229.403 7.04144 229.797 7.1097L232.802 7.24297C232.914 7.3115 233.054 7.38087 233.221 7.45018C233.335 7.50493 233.534 7.55851 233.775 7.59955C234.017 7.64059 234.282 7.66588 234.514 7.67005C235.112 7.69035 235.613 7.64495 236.326 7.75713C235.228 7.86318 233.748 7.84909 232.148 7.71738C230.645 7.6172 229.199 7.56714 227.864 7.56904C227.424 7.56828 226.844 7.57413 226.707 7.63473C226.402 7.80599 225.605 7.77892 224.675 7.74733C223.944 7.71275 223.277 7.71663 222.727 7.75865C222.178 7.80068 221.763 7.87965 221.515 7.98907C221.453 8.09477 221.603 8.185 222.244 8.24651L224.911 8.49316C225.304 8.46145 225.676 8.42391 226.028 8.3807C226.619 8.32331 227.35 8.30756 228.163 8.33467C228.975 8.36178 229.848 8.43102 230.713 8.53701C231.155 8.59175 231.597 8.64649 231.918 8.62048C232.199 8.5906 232.458 8.55483 232.693 8.51343C232.74 8.48568 232.759 8.45374 232.749 8.41885C232.919 8.43507 233.089 8.45617 233.254 8.48141C234.57 8.77585 235.59 8.77075 236.516 8.69438C236.767 8.67168 236.958 8.63559 237.212 8.60733C237.466 8.57906 237.555 8.54238 237.786 8.55305C239.627 8.64962 240.157 8.32709 241.708 8.34004C241.783 8.32744 241.83 8.30861 241.844 8.28527C241.858 8.26194 241.838 8.23486 241.787 8.20652C241.677 8.18093 241.551 8.15893 241.418 8.14253C241.286 8.12613 241.152 8.11587 241.029 8.11268C240.315 8.07129 239.685 8.08398 239.246 8.14858C238.935 8.17498 238.605 8.19602 238.26 8.21157L236.706 7.7445C238.211 7.78732 239.634 7.78704 240.943 7.74367C241.228 7.71931 241.712 7.76127 242.114 7.76925L245.07 7.8129C245.678 7.81652 246.196 7.7433 247.043 7.91398C247.043 7.91398 247.603 7.94151 247.752 7.9182C247.902 7.8949 248.564 7.74995 248.959 7.65553C249.417 7.68245 250.052 7.75509 250.337 7.73074C250.836 7.67092 251.268 7.59423 251.625 7.50205L253.411 7.63364C253.409 7.75054 253.344 7.86051 253.216 7.96189C253.077 8.05966 253.082 8.17702 253.23 8.30437C253.379 8.43173 253.666 8.56546 254.07 8.69465L255.833 9.37885C256.121 9.42467 256.428 9.45551 256.712 9.46719C256.996 9.47887 257.243 9.47082 257.421 9.44413C258.18 9.3649 259.03 9.30296 259.788 9.22373C260.767 9.34494 260.515 9.54072 261.227 9.71245L263.531 9.99788C263.883 10.2624 264.241 10.5158 263.172 10.6043C262.96 10.6198 263.103 10.7211 262.909 10.7628C263.74 10.9613 264.654 11.0207 265.496 11.143C265.828 11.2309 266.106 11.324 266.316 11.4177C266.547 11.5588 267.014 11.703 267.617 11.819C268.221 11.9351 268.911 12.0138 269.54 12.038C270.596 12.1123 271.676 12.2239 272.734 12.3678C273.095 12.4179 273.466 12.4543 273.822 12.4747C274.178 12.4951 274.511 12.4991 274.798 12.4862C275.821 12.4635 276.687 12.3856 277.34 12.2575C277.985 12.1488 278.855 12.0964 279.87 12.1051C281.607 12.3201 281.957 12.6442 283.008 12.9296L281.193 12.9616C281.127 13.0729 281.247 13.2132 280.503 13.2106C279.759 13.208 280.136 13.3145 280.377 13.422C280.462 13.4761 280.628 13.5317 280.847 13.5795C281.066 13.6273 281.324 13.6642 281.578 13.6841L283.123 13.8217C283.671 13.8741 284.201 13.8965 284.655 13.8864C285.109 13.8763 285.47 13.8341 285.698 13.7645C285.96 13.6984 286.321 13.6537 286.759 13.6331C287.317 13.5792 287.776 13.499 288.119 13.3955L290.301 13.5462C290.393 13.4423 290.693 13.3694 291.149 13.3399C291.605 13.3104 292.189 13.3261 292.803 13.3843L294.273 13.4768C295.907 13.5777 296.266 13.5445 296.745 13.2515L294.784 12.728C295.069 12.5901 295.344 12.4689 295.62 12.3477C295.131 12.1753 294.48 12.0122 293.731 11.8749C293.032 11.7275 292.314 11.5847 291.579 11.4471C290.781 11.3065 289.938 11.1842 288.948 11.0257C288.775 10.9745 288.524 10.8836 288.203 10.7961C287.882 10.7111 287.547 10.6277 287.199 10.5463C287.265 10.4351 287.324 10.3349 287.197 10.2058C287.807 10.247 288.437 10.3191 289.031 10.4155C289.625 10.512 290.163 10.6298 290.597 10.7583C290.67 10.7811 290.76 10.8025 290.86 10.821C290.96 10.8396 291.068 10.8549 291.178 10.8659C292.249 10.9449 292.761 11.1099 293.285 11.3121C293.638 11.4155 294.093 11.5073 294.587 11.5748C295.534 11.6921 296.461 11.8428 297.367 11.9729C297.644 12.0162 297.932 12.0519 298.219 12.0785C299.166 12.1628 300.118 12.2808 301.029 12.4265C301.326 12.4635 301.611 12.5124 301.86 12.5693C302.11 12.6261 302.316 12.6892 302.462 12.7532C302.236 12.8234 302.115 12.9119 302.104 13.0135C302.065 13.0803 302.73 13.2164 303.044 13.315C303.358 13.4137 302.742 13.3672 302.533 13.3771C301.674 13.3962 301.515 13.4362 302.029 13.6551C302.201 13.724 302.315 13.7928 302.364 13.8575C302.413 13.9221 302.396 13.9812 302.315 14.0309C302.193 14.2367 301.821 14.4058 301.566 14.6071C301.962 14.7397 302.624 14.8814 302.696 15.0456C302.731 15.082 302.804 15.1206 302.91 15.1586C303.017 15.1965 303.154 15.2329 303.311 15.2651C303.727 15.3346 304.105 15.4177 304.416 15.508C304.726 15.5983 304.962 15.6933 305.104 15.7857C305.15 15.824 305.262 15.8645 305.418 15.8993C305.573 15.934 305.76 15.9604 305.942 15.9731C306.158 15.9887 306.352 15.9867 306.484 15.9674C306.615 15.948 306.673 15.913 306.647 15.8694C306.652 15.7874 306.624 15.702 306.561 15.6139C306.597 15.5527 306.634 15.4915 306.49 15.3901C307.138 15.4271 307.817 15.5012 308.455 15.6045C309.093 15.7077 309.664 15.836 310.108 15.9756C310.599 16.1199 311.051 16.2715 311.595 16.4404C311.483 16.6295 311.483 16.6295 312.64 16.964L318.779 17.1271L320.037 17.3486C321.21 17.5417 321.489 17.5284 322.226 17.4286L322.722 17.3348C323.764 17.4638 324.964 17.6124 325.615 17.3706C325.827 17.5282 325.965 17.5811 325.917 17.6051C325.606 17.8376 325.065 18.0349 324.317 18.1892C324.126 18.2253 323.992 18.2803 323.769 18.3125C323.052 18.4941 322.886 18.7747 323.304 19.097C323.512 19.2396 323.814 19.3856 324.2 19.5303C323.635 19.7312 322.887 19.8976 321.975 20.0252C321.201 20.1238 320.564 20.2559 320.082 20.4177C319.649 20.5809 319 20.7035 318.174 20.7786C317.754 20.8105 317.448 20.8735 317.286 20.9613C317.238 21.1989 317.349 21.4533 317.616 21.7188C317.667 21.7996 317.81 21.8869 318.035 21.9738C318.26 22.0607 318.56 22.1449 318.912 22.2197C318.912 22.2197 319.082 22.2766 319.163 22.3106C319.231 22.5983 318.977 22.8519 318.418 23.0543C318.326 23.1117 318.138 23.1532 317.875 23.1742C317.612 23.1953 317.283 23.1951 316.923 23.1738C316.164 23.1395 315.455 23.1353 314.721 23.116C313.93 23.0888 313.233 23.1102 312.704 23.1782C312.175 23.2461 311.833 23.3579 311.714 23.502C311.706 23.5427 311.683 23.5818 311.644 23.6188C311.622 23.6379 311.61 23.6584 311.608 23.68L313.294 24.1516L311.387 24.3393C311.275 24.5285 312.19 24.6419 312.649 24.7823L312.365 24.8607C312 24.905 311.508 24.8202 311.063 24.771L310.621 24.7163L310.568 24.8053C310.293 24.9265 309.29 24.7903 308.898 24.8791C308.507 24.968 308.786 25.0683 309.373 25.1648C309.78 25.2366 310.218 25.2938 310.653 25.3322C311.088 25.3706 311.509 25.3891 311.885 25.3864C312.109 25.3769 312.294 25.3552 312.431 25.3226C313.222 25.184 314.097 25.0648 315.048 24.966C315.777 24.8772 316.69 24.8395 317.723 24.8554C318.026 24.8487 318.391 24.8697 318.755 24.9147C319.119 24.9598 319.458 25.026 319.712 25.1017L320.247 25.1142C320.247 25.1142 320.539 25.1922 320.498 25.205C320.294 25.4362 320.531 25.7189 321.172 26.0111L320.614 26.0376C319.817 26.0105 320.323 26.1866 320.203 26.2734C319.637 26.257 318.901 26.1837 318.633 26.2938L318.231 26.2858L318.388 26.3054L318.579 26.2693L319.329 26.4338C318.974 26.4615 318.716 26.4953 318.403 26.5102C318.229 26.5231 318.091 26.546 317.997 26.5774C317.903 26.6088 317.854 26.6481 317.854 26.693C317.855 26.762 317.761 26.8201 317.582 26.8617C317.403 26.9033 317.145 26.9271 316.832 26.9307C316.458 26.9322 316.244 27.0072 316.025 27.0339L316.977 27.4862C316.977 27.4862 316.503 27.4275 316.761 27.5072L316.794 27.4516L317.371 27.5648C317.787 27.6641 318.077 27.6881 318.323 27.617C318.568 27.5459 318.512 27.6405 318.63 27.6133C318.587 27.6856 318.32 27.7361 318.091 27.7794C317.826 27.8134 317.527 27.8385 317.2 27.8541C317.79 28.1722 317.819 28.1816 316.956 28.2658C316.092 28.35 316.39 28.4765 315.668 28.4945C314.945 28.5126 315.767 28.7278 316.25 28.7697C316.609 28.7973 316.974 28.8403 317.321 28.8957C317.669 28.9511 317.99 29.0176 318.263 29.0906L318.118 29.3354C317.905 29.3152 317.692 29.2888 317.486 29.2572C316.786 29.1228 316.15 28.9962 315.527 29.0743L315.824 29.2604L313.651 29.1525C313.707 29.2919 314.039 29.4507 314.575 29.5953C314.494 29.6748 314.444 29.7585 314.426 29.8457C314.39 29.9069 314.176 29.8684 314.036 29.875C313.539 29.8853 313.13 29.9267 312.847 29.9958C312.564 30.0648 312.415 30.1594 312.412 30.2711C312.356 30.3656 313.121 30.5619 313.599 30.5554C314.793 30.5743 316.085 30.6471 317.403 30.7698C318.207 30.7857 318.32 30.537 319.643 30.7068C319.669 30.8216 319.5 30.9146 319.16 30.9717C318.821 31.0288 318.33 31.0468 317.761 31.0231C318.085 31.2782 319.875 31.3447 319.954 31.6113C319.508 31.5924 319.032 31.5481 318.571 31.4827C318.111 31.4173 317.682 31.3331 317.329 31.2383C317.252 31.215 317.157 31.1934 317.05 31.1757C316.944 31.158 316.83 31.1447 316.72 31.137C316.609 31.1293 316.506 31.1274 316.419 31.1316C316.332 31.1358 316.264 31.1459 316.222 31.161C316.47 31.2574 316.743 31.3688 317.054 31.473C317.365 31.5772 317.44 31.6223 317.664 31.6442C319.337 31.8514 320.133 32.2246 321.58 32.4696C321.959 32.5165 322.006 32.6657 321.678 32.6488C321.365 32.632 321.081 32.6342 320.86 32.6552C320.638 32.6762 320.486 32.7152 320.421 32.7679C320.178 32.8293 319.876 32.8782 319.521 32.9133C321.006 33.2963 322.776 33.6347 324.666 33.8968C325.023 33.9486 325.397 33.9801 325.73 33.9869C326.785 33.9872 327.904 34.0176 329.066 34.0774C329.477 34.0937 329.858 34.0922 330.186 34.0729C331.264 34.0272 332.12 34.1273 332.902 34.4092L334.195 34.8561C334.153 34.9284 333.935 35.009 333.768 35.1197L334.779 35.3584L342.492 34.8087L344.04 35.3409L346.261 35.3113C346.431 35.3267 346.602 35.3479 346.766 35.3739C347.215 35.531 347.566 35.682 348.053 35.8319C348.54 35.9818 349.411 36 350.018 36.1767C350.625 36.3534 351.232 36.357 351.983 36.462C352.054 36.5988 351.981 36.7219 351.769 36.8236C351.7 36.9405 351.318 37.0127 351.252 37.1239C351.26 37.2364 351.118 37.3319 350.84 37.4017C350.562 37.4715 350.156 37.5135 349.66 37.5239C348.27 37.7633 346.594 37.9338 344.683 38.0302C344.515 38.0372 344.376 38.0534 344.274 38.0778C344.172 38.1022 344.11 38.1342 344.091 38.1719C344.094 38.281 343.966 38.3753 343.718 38.4479C343.47 38.5205 343.107 38.5695 342.656 38.5914C342.536 38.5958 342.446 38.6095 342.396 38.6308C342.225 38.6445 342.1 38.6708 342.034 38.7071C341.968 38.7435 341.963 38.7886 342.019 38.8381C342.074 38.8877 342.19 38.94 342.353 38.99C342.516 39.04 342.722 39.086 342.951 39.1235C343.283 39.1841 343.622 39.242 343.966 39.2971C343.947 39.3305 343.605 39.3359 343.654 39.3659C343.79 39.4619 343.821 39.5519 343.746 39.6286C343.671 39.7054 343.492 39.7668 343.223 39.8082L345.066 40.5859C346.185 40.6936 347.283 40.8763 348.151 41.0993C348.152 41.1358 348.102 41.1664 348.006 41.1881C347.91 41.2097 347.771 41.2216 347.603 41.2226C347.153 41.2385 346.728 41.2695 346.243 41.2871C345.947 41.3002 345.7 41.3291 345.518 41.3721C345.335 41.4151 345.221 41.4714 345.18 41.5376L346.262 41.8269C345.916 41.8974 345.658 41.9312 345.429 41.9745C345.559 42.0655 345.782 42.1595 346.082 42.2494C346.381 42.3393 346.748 42.4226 347.155 42.4929C347.265 42.5074 347.376 42.518 347.483 42.5241C347.59 42.5301 347.69 42.5315 347.778 42.5282C348.617 42.429 349.597 42.6042 350.549 42.7699C351.502 42.9356 352.019 43.0355 352.722 43.1644L354.067 43.1817C354.407 43.2427 354.711 43.3144 354.954 43.3912C355.197 43.4679 355.372 43.5475 355.465 43.6236C355.393 43.746 354.755 43.679 354.375 43.6916C353.473 43.7678 352.287 43.7515 351.013 43.6455C350.698 43.6064 350.374 43.638 350.067 43.6417C349.404 43.657 348.767 43.6818 348.159 43.716C347.758 43.7479 347.384 43.7873 347.038 43.834C346.946 43.9898 348.4 44.1101 347.575 44.1871C347.859 44.2223 347.965 44.2713 348.111 44.2536C349.047 44.3547 349.969 44.4047 350.771 44.3978C352.309 44.3763 354.055 44.4473 355.867 44.6049C357.822 44.7683 359.698 44.8368 361.339 44.805C361.965 44.8032 362.663 44.8366 363.383 44.9028C364.232 44.9945 365.075 45.0521 365.858 45.072C366.117 45.0727 366.406 45.0883 366.7 45.1175C366.995 45.1468 367.288 45.1888 367.554 45.2403C367.531 45.2792 367.277 45.3075 367.334 45.3264C368.144 45.6179 368.472 45.9213 369.719 46.2191C370.571 46.3246 371.55 46.4458 372.107 46.3059C372.665 46.1659 372.465 46.0456 371.356 45.6872C371.596 45.6821 371.886 45.6988 372.175 45.7345C372.463 45.7703 372.732 45.8227 372.934 45.8827L373.894 46.1509L374.758 46.4072C374.682 46.5352 374.623 46.6353 374.56 46.7411C374.461 46.8533 374.57 46.99 374.871 47.1319C375.052 47.2093 375.211 47.2868 375.344 47.3636C375.884 47.6707 376.041 47.961 375.796 48.2019C375.326 48.5483 374.672 48.867 373.842 49.1543C372.965 49.4338 372.484 49.7864 371.762 50.0911C371.393 50.2298 370.945 50.3541 370.423 50.4627C369.433 50.7044 368.348 50.9343 367.354 51.1815C366.36 51.4286 365.238 51.6062 364.135 51.8099C362.492 52.0517 360.716 52.2605 358.817 52.4352C357.642 52.5883 356.435 52.7374 355.348 52.9134C354.064 53.1117 352.556 53.2541 350.861 53.337C349.364 53.4363 348.026 53.5832 346.874 53.7748C346.753 53.7956 346.658 53.8219 346.59 53.8532C346.383 54.0486 345.801 54.1863 344.935 54.2453C344.987 54.3025 345.055 54.3607 345.136 54.4196C345.257 54.4898 345.282 54.5554 345.208 54.6081C345.135 54.6607 344.966 54.698 344.724 54.7149C344.031 54.7633 343.455 54.8455 343.021 54.9579C342.862 54.986 342.763 55.0271 342.733 55.0775C342.704 55.1279 342.743 55.1861 342.85 55.2472C342.944 55.31 342.951 55.3678 342.87 55.4131C342.788 55.4585 342.623 55.4892 342.394 55.5013C341.807 55.5608 341.179 55.6086 340.513 55.6446C339.096 55.7238 337.449 55.7228 335.669 55.6418C335.48 55.6183 335.289 55.6544 335.068 55.627C333.809 55.5362 332.641 55.5221 331.703 55.5865C330.604 55.6116 329.455 55.6066 328.295 55.6184C326.621 55.6105 325.076 55.6583 323.704 55.7604C322.136 55.6617 321.255 55.8333 319.931 55.8366C318.709 55.8542 317.551 55.8964 316.468 55.963C314.721 56.0512 312.981 56.1283 311.259 56.2316C309.644 56.2808 308.157 56.3749 306.823 56.5123C306.312 56.5743 305.387 56.4777 305.038 56.6077C304.69 56.7378 303.988 56.7224 303.42 56.7656L301.628 56.8722C301.32 56.8975 300.982 56.9136 300.617 56.9201C298.952 56.9288 297.798 57.1025 296.252 57.1379L296.094 57.1184C293.349 57.3765 290.208 57.5182 286.763 57.5393C284.751 57.6185 282.55 57.6147 280.415 57.6727C279.905 57.7888 278.703 57.6457 278.064 57.7517C277.425 57.8577 276.381 57.7883 275.558 57.8057C274.734 57.8231 273.929 57.8667 273.049 57.8652C272.284 57.8657 271.639 57.913 271.171 58.0029C270.103 58.1515 268.802 58.2388 267.325 58.261C265.37 58.2996 263.522 58.3873 261.534 58.368C261.563 58.4763 261.441 58.5684 261.181 58.6349C260.921 58.7014 260.533 58.7398 260.056 58.7463C257.931 58.7876 256.003 58.8952 253.849 58.9271L253.273 58.9274L246.831 58.9895C245.096 59.0015 243.424 59.0214 241.654 59.035C240.991 58.9529 240.975 59.0943 240.516 59.0673C240.388 58.9977 240.237 58.967 240.011 59.0048L239.961 59.0882L232.61 59.1989C229.732 59.2799 226.704 59.3042 223.553 59.2716C222.805 59.2798 222.108 59.3074 221.471 59.3541C220.88 59.3711 220.265 59.3787 219.628 59.3766C218.766 59.3556 217.924 59.345 217.105 59.3448C214.951 59.3767 212.691 59.3595 210.332 59.3362C207.974 59.3128 206.187 59.3543 204.088 59.3511C202.667 59.3482 201.252 59.3342 199.78 59.3013C199.078 59.2859 198.212 59.2026 197.485 59.1722C196.757 59.1418 196.52 59.1423 196.424 59.1901C196.107 59.3241 195.311 59.2374 194.675 59.2244C193.434 59.2021 193.258 59.1564 192.921 58.8101L194.443 58.7C194.817 58.6645 195.286 58.6583 195.806 58.6819C196.326 58.7055 196.88 58.7582 197.413 58.835C197.623 58.8678 197.843 58.8938 198.059 58.9114C198.276 58.929 198.485 58.9378 198.674 58.9374C200.21 58.9186 201.725 58.8792 203.201 58.8471L203.417 58.826L203.43 58.5172C203.235 58.4868 203.033 58.4618 202.831 58.4429L195.426 58.2425C193.727 58.1933 191.963 58.0823 190.296 58.037C188.628 57.9917 187.729 57.964 186.436 57.9172C185.89 57.8906 185.333 57.8556 184.769 57.8124C184.802 57.7827 184.821 57.751 184.826 57.7178C184.855 57.6678 184.895 57.601 184.655 57.5474C184.394 57.4719 184.045 57.4073 183.678 57.3667C183.333 57.3399 182.999 57.3247 182.688 57.3217C181.186 57.2958 179.471 57.1327 177.908 56.8671L177.363 57.0444C175.016 56.9448 172.634 56.8468 170.182 56.7522C169.691 56.7264 169.176 56.6769 168.675 56.6074C168.139 56.5409 167.645 56.4021 167.08 56.3262C166.522 56.2715 165.967 56.2289 165.427 56.1991C165.573 56.1535 165.766 56.117 165.999 56.0909C166.229 56.0817 166.396 56.0532 166.477 56.0095C166.558 55.9658 166.548 55.9092 166.448 55.8479C166.274 55.7426 166.197 55.6435 166.577 55.6309C166.928 55.6069 167.18 55.5549 167.302 55.4811C167.423 55.4073 167.41 55.3148 167.264 55.2144C167.2 55.1557 167.155 55.0982 167.129 55.0424L166.971 55.0228C166.451 54.815 165.411 54.7399 164.664 54.5699C164.312 54.5205 163.947 54.4922 163.628 54.4892C162.802 54.4527 161.998 54.4367 161.145 54.3907C160.737 54.3695 160.31 54.3309 159.89 54.2772C159.29 54.2029 159.227 54.1951 158.879 53.925C159.42 53.9297 159.849 53.8894 160.093 53.8108C160.337 53.7322 160.382 53.6202 160.219 53.4938C159.773 53.2175 159.301 52.9263 157.283 52.73C157.941 52.7203 158.575 52.7011 159.181 52.6724C159.357 52.6663 159.489 52.646 159.559 52.6143C159.629 52.5826 159.634 52.541 159.573 52.4951C159.511 52.4492 159.387 52.4011 159.216 52.3574C159.046 52.3137 158.837 52.2763 158.618 52.2503C157.552 52.0941 156.441 51.9895 155.408 51.9484C154.538 51.9302 153.752 51.9404 152.736 51.9399L151.536 51.7913C151.556 51.7579 151.38 51.7122 151.424 51.6939C151.729 51.5226 152.066 51.3553 152.412 51.1712C151.859 51.0718 151.38 50.9519 151.029 50.825C150.679 50.6982 150.472 50.5696 150.431 50.4541C150.401 50.4192 150.409 50.3874 150.454 50.361C150.499 50.3346 150.58 50.3142 150.691 50.3012C151.007 50.2788 151.251 50.2361 151.403 50.1764C151.556 50.1166 151.614 50.0414 151.573 49.9565L150.64 49.6439C147.831 49.4208 145.073 49.2615 142.416 49.1688L140.017 49.0987C139.728 49.015 139.818 48.9784 140.09 48.9763C140.362 48.9741 141.128 48.9973 141.663 49.0098C142.125 49.0262 142.535 49.0154 142.854 48.9785C143.172 48.9416 143.389 48.8798 143.482 48.7992L142.677 48.4426C142.716 48.3759 142.772 48.2813 143.209 48.2876C143.508 48.2799 143.727 48.2463 143.833 48.1922C143.939 48.1382 143.925 48.0668 143.792 47.9896C143.772 47.9338 143.802 47.8829 143.881 47.8394C144.527 47.8358 145.17 47.8377 145.756 47.8208C146.029 47.8151 146.26 47.7945 146.432 47.7602C146.605 47.7259 146.715 47.6787 146.755 47.622C146.776 47.5666 146.725 47.5035 146.605 47.4378C146.485 47.3721 146.3 47.3057 146.064 47.2438C145.146 47.1673 144.305 47.1663 143.728 47.2411C143.522 47.2997 143.191 47.3317 142.779 47.3329C142.367 47.3341 141.893 47.3044 141.419 47.2478C140.877 47.1825 140.336 47.1538 139.894 47.1669C139.451 47.1799 139.136 47.2339 139.005 47.319C138.449 47.286 137.955 47.2607 137.469 47.2243C136.894 47.1784 136.352 47.1648 135.899 47.1852C135.175 47.1995 134.394 47.1911 133.576 47.1602C131.215 47.0828 128.852 47.0111 126.567 46.9789C125.962 46.9697 125.439 46.9945 124.841 46.9742C124.243 46.9539 123.77 47.0087 123.022 46.8982C122.88 46.881 122.737 46.87 122.604 46.866C122.471 46.862 122.352 46.8651 122.257 46.875C120.944 46.9624 119.404 46.9748 117.728 46.9114C115.433 46.8958 113.053 46.8519 110.755 46.8419C110.08 46.8505 109.443 46.8735 108.85 46.9106C108.399 46.9331 107.926 46.9483 107.434 46.9562C107.057 46.9632 106.696 46.9425 106.76 47.0638C106.823 47.1852 106.259 47.1092 105.933 47.0868C104.814 47.028 103.671 46.9483 102.516 46.8487C101.378 46.7405 100.262 46.6775 99.2369 46.6636C98.4962 46.6554 97.7324 46.6863 96.7801 46.5205C96.8164 46.4593 96.8526 46.3981 97.0599 46.3342C96.2833 46.1584 95.3972 46.0071 94.475 45.8929C93.5527 45.7787 92.6207 45.7048 91.7562 45.6773L90.564 45.3446C90.2705 45.3055 89.9708 45.277 89.6832 45.2609C89.3957 45.2448 89.1262 45.2414 88.8912 45.2508C88.7097 45.2557 88.4884 45.2433 88.268 45.216C88.0476 45.1887 87.843 45.1483 87.6916 45.1023C87.4652 45.0437 87.1887 44.9931 86.8967 44.957C86.6046 44.9208 86.3101 44.9006 86.0499 44.8989C85.2308 44.8627 84.3564 44.7792 83.5163 44.6568C83.2983 44.5851 83.1617 44.5109 83.1233 44.4436C83.085 44.3762 83.1466 44.3186 83.3005 44.2777C83.5487 44.2056 83.688 44.1137 83.7101 44.0077C83.7322 43.9016 83.6366 43.7835 83.429 43.6606C83.3227 43.5852 83.2872 43.5137 83.3246 43.4506C83.362 43.3875 83.4716 43.334 83.6466 43.2934C84.3001 43.1056 84.1253 43.0004 83.0561 42.6888C82.8825 42.6369 82.6731 42.5883 82.4413 42.5462C82.2096 42.5042 81.9605 42.4695 81.7099 42.4444C81.1219 42.3936 80.5419 42.3559 79.9806 42.3318C79.6649 42.2927 79.3412 42.3242 78.9774 42.3091C77.1586 42.2331 76.8924 42.1105 76.3034 41.8465L75.8741 41.656C75.0779 41.5016 74.2072 41.3735 73.3246 41.2807C72.442 41.1879 71.5696 41.1328 70.7702 41.1194C70.4524 41.1184 70.0871 41.092 69.7302 41.0443C68.5688 40.8985 67.3927 40.7976 66.2797 40.7483C65.5861 40.7206 64.8385 40.6488 64.1266 40.5415C63.4147 40.4343 62.7687 40.2962 62.2664 40.1438C61.8152 40.0065 61.2249 39.8833 60.5777 39.7913C59.82 39.6975 59.7498 39.5873 60.1729 39.5023C60.596 39.4174 61.3047 39.308 61.9337 39.2187C62.1526 39.1884 62.2882 39.139 62.3254 39.0762C62.3627 39.0133 62.3001 38.9394 62.1447 38.8627C62.0449 38.7314 62.0276 38.6068 62.0932 38.492C62.1283 38.4443 62.1041 38.3896 62.0222 38.3315C61.9404 38.2735 61.8028 38.2135 61.6187 38.1557C61.4346 38.0978 61.2084 38.0433 60.9552 37.996C60.702 37.9486 60.4277 37.9095 60.1509 37.8812C58.9828 37.7365 57.8463 37.5957 56.6551 37.49C56.1559 37.4402 55.6572 37.3784 55.1713 37.3062C54.1766 37.1277 53.1125 36.9797 52.0407 36.8707C51.532 36.822 51.0347 36.7368 50.6563 36.6336C49.463 36.3555 48.3635 36.0631 47.3776 35.7617C47.1399 35.6682 46.8291 35.577 46.4643 35.4938C46.0996 35.4106 45.6889 35.3372 45.2581 35.2782C44.9109 35.2352 44.6282 35.1405 44.3605 35.0775C44.166 34.9316 44.1452 34.7966 44.3001 34.6852C44.4551 34.5738 44.7806 34.4897 45.2462 34.4407C45.6877 34.3819 46.1009 34.3136 46.4825 34.2415C46.9426 34.1831 47.4895 34.1481 48.103 34.1376C48.8295 34.1063 49.3668 34.0167 49.6447 33.8806C47.6557 33.6343 45.7643 33.2806 44.021 33.3633L42.6964 33.1395C42.7491 33.0505 42.7953 32.9726 42.8381 32.9003C43.1532 32.7686 43.2516 32.6026 43.125 32.4162C43.0206 32.3261 43.0301 32.2441 43.1523 32.1785C43.2745 32.1129 43.5051 32.066 43.8209 32.0426C45.6915 31.8025 47.8546 31.6404 49.6088 31.368C50.1588 31.3169 50.8027 31.2936 51.5133 31.2993C52.2008 31.2829 52.172 31.1599 51.3809 31.0082C50.9368 30.9289 50.4842 30.8529 50.0247 30.7805C47.9986 30.7684 47.1732 31.132 44.8611 31.0308L43.7895 30.5517C43.4997 30.5443 43.2184 30.5414 42.9475 30.543L39.0706 30.7376C38.7477 30.7474 38.4963 30.7807 38.3451 30.8337C38.1939 30.8868 38.1488 30.9575 38.215 31.0378C38.2412 31.136 38.1878 31.2261 38.0567 31.3048C37.9722 31.3599 38.0263 31.4332 38.2071 31.5086C38.6147 31.6785 38.0917 31.7033 37.7614 31.746C37.677 31.7502 37.5797 31.7497 37.475 31.7447C37.3704 31.7396 37.2606 31.7301 37.1519 31.7167C37.0432 31.7032 36.9379 31.6861 36.842 31.6663C36.7462 31.6465 36.6616 31.6244 36.5934 31.6013C36.0114 31.4397 35.5024 31.2691 34.9304 31.0908C35.3365 30.9201 34.8587 30.64 35.4924 30.4856C35.5633 30.4547 35.5916 30.4171 35.5757 30.3751C35.5599 30.3331 35.5 30.2875 35.4 30.2412C35.1419 30.1217 35.019 30.0051 35.0437 29.9033C35.0683 29.8015 35.2396 29.7181 35.5403 29.6614L35.5766 29.6002C34.7835 29.3945 34.9936 29.2115 34.6822 28.9938L33.9193 28.8515C32.0213 28.5089 32.018 28.5145 30.3839 28.5271C30.0545 28.3967 30.473 28.3769 30.7868 28.362L33.4151 28.2157C35.1334 28.118 36.9018 28.0504 38.8214 28.0134C40.741 27.9765 42.8811 27.8533 44.8652 27.7647C44.9655 27.7578 45.0423 27.7442 45.089 27.7251C45.1357 27.7059 45.151 27.6817 45.1338 27.6546C45.0549 27.6252 44.9516 27.5969 44.8317 27.5717C44.7117 27.5465 44.5781 27.5251 44.4406 27.509C43.8092 27.4308 43.1613 27.3804 42.4885 27.315L41.2341 27.2015L40.8482 27.0522C40.5971 26.9613 40.4255 26.8505 40.0914 26.7852C39.8161 26.7366 39.5172 26.6996 39.2259 26.6782C38.9346 26.6569 38.6616 26.6518 38.4352 26.6637C37.8076 26.6935 37.2398 26.7366 36.6405 26.7759C36.0411 26.8151 35.7108 26.8578 35.1911 26.877C34.1352 26.8858 33.1147 26.9089 32.1341 26.9463C31.3082 27.0348 30.5442 27.1397 29.8471 27.2602C29.4122 27.3079 29.0055 27.365 28.2629 27.3029C27.9106 27.2466 27.6067 27.1726 27.4051 27.0941C27.2035 27.0155 27.1173 26.9375 27.1617 26.8739C27.2015 26.824 27.3143 26.7846 27.4894 26.7592C27.6645 26.7339 27.8961 26.7235 28.1624 26.7291C28.9078 26.7199 29.5971 26.6891 30.2164 26.6371C31.0783 26.543 32.1276 26.5024 33.303 26.5178C33.7016 26.5313 33.9688 26.4808 34.3175 26.4643C34.6662 26.4477 34.9616 26.4067 35.3503 26.4369C36.558 26.5148 37.137 26.3954 37.8607 26.3179C38.1057 26.2835 38.2575 26.2279 38.2994 26.1572C38.3413 26.0865 38.2717 26.0035 38.0982 25.9173C37.7641 25.7456 37.3555 25.5729 36.8787 25.402C36.6333 25.3179 36.3189 25.2381 35.9601 25.1689C35.6014 25.0996 35.208 25.0426 34.811 25.0025C34.5733 24.8974 34.4466 24.794 34.4421 24.7017C34.4377 24.6093 34.5557 24.5311 34.7855 24.4739C35.3712 24.3433 35.8904 24.2106 37.2026 24.2835C37.8196 24.3114 38.4002 24.3167 38.9215 24.2993C40.0776 24.2755 41.4112 24.3277 42.7966 24.4508C43.155 24.4824 43.5073 24.5039 43.8431 24.5147C46.2381 24.5904 48.5201 24.6282 50.8086 24.6548C52.021 24.6676 53.2432 24.6638 54.5089 24.7011C57.4769 24.782 60.1786 24.7404 63.0434 24.7668C64.5438 24.7803 65.8868 24.7258 67.0019 24.6061C67.219 24.5659 67.4055 24.5191 67.5592 24.4661C66.8203 24.327 66.0086 24.2169 65.202 24.1462C64.3953 24.0756 63.6207 24.0469 62.9524 24.0627C62.585 24.1017 62.1101 24.1088 61.5807 24.0833C61.0513 24.0578 60.4882 24.0007 59.9542 23.9183L61.5068 23.8717C62.5363 23.85 63.5908 23.8432 64.5921 23.8119C66.1828 23.7581 67.6571 23.672 69.3043 23.6371C70.6342 23.6051 71.8243 23.5231 72.8372 23.3939C73.569 23.2996 74.4047 23.2328 75.3274 23.1947C75.9833 23.1744 75.9833 23.1744 76.4026 22.9815C76.07 22.8567 75.6398 22.8392 75.2346 22.8368C72.8052 22.7583 70.4932 22.7445 68.3458 22.7958C67.2623 22.8004 66.3011 22.8533 65.5084 22.952C65.3142 22.9937 64.8176 22.9739 64.419 22.9604C63.1693 22.9398 61.975 22.9458 60.8502 22.9783C59.2952 23.0324 57.5633 23.0195 55.7218 22.9403C55.3726 22.8433 55.7745 22.8513 55.7943 22.8179C57.2206 22.7556 58.6186 22.6839 60.0732 22.6312C60.4708 22.6124 60.8958 22.6031 61.3435 22.6034C63.0147 22.6361 64.4074 22.5455 65.3264 22.3442C65.3725 22.2663 65.9771 22.2755 66.2442 22.225C66.3756 22.1813 66.4632 22.1298 66.5042 22.0721C66.115 21.9283 65.6749 21.9275 65.3362 21.9274C64.3531 21.9434 63.4073 21.9739 62.5035 22.0185C61.6633 22.061 60.7332 22.0723 59.7385 22.0523C59.0044 22.033 58.3768 22.0628 57.6361 22.0546C57.2343 22.0375 56.8184 22.0101 56.3968 21.9728C56.8662 21.8726 57.5042 21.811 58.266 21.7923C58.8437 21.7324 59.566 21.7144 59.6583 21.5586C59.3855 21.4472 59.0816 21.4454 58.8375 21.4569C58.3294 21.4565 57.8387 21.4635 57.3679 21.478C56.3695 21.5096 55.2886 21.5101 54.1478 21.4793C53.547 21.4678 52.977 21.4712 52.4473 21.4896C51.2467 21.5141 50.0961 21.5687 48.9968 21.5938C46.745 21.6195 44.6912 21.7115 42.5275 21.76C42.046 21.772 41.6143 21.8141 40.9796 21.7415C40.3449 21.6688 40.3167 21.6594 40.2417 21.6142C40.0641 21.539 40.0103 21.466 40.0914 21.4105C40.2173 21.3586 40.4626 21.3297 40.7835 21.329C42.7177 21.2465 44.5523 21.1306 46.2757 20.982C47.0341 20.9523 47.6986 20.8916 48.2461 20.8021C48.6803 20.7404 49.1953 20.6996 49.775 20.6809C50.6182 20.6363 51.4972 20.6037 52.4085 20.5831C52.8325 20.572 53.193 20.539 53.4689 20.4859C53.7447 20.4329 53.9303 20.361 54.0147 20.2744L52.8975 19.9867C52.722 19.9733 52.5479 19.9617 52.3759 19.952L43.1034 20.1592L42.1851 20.1649C41.1787 20.1477 40.9327 20.1053 39.978 19.7721C42.1568 19.6937 43.8695 19.4652 44.9456 19.1093C44.687 19.0711 44.4219 19.0382 44.1564 19.0116C42.4152 18.9274 40.7692 18.9051 39.2819 18.9454C38.3984 18.9494 37.49 18.9384 36.5783 18.933C36.8449 18.7689 37.8664 18.8178 38.5322 18.7808C40.123 18.723 41.5297 18.6034 42.7074 18.426C43.1134 18.3569 43.6214 18.3126 44.208 18.2954C44.7951 18.2894 45.2855 18.2476 45.6366 18.1734C45.9877 18.0993 46.1887 17.9951 46.2222 17.87C46.2775 17.7567 46.3967 17.6515 46.578 17.5558C46.2573 17.42 45.7481 17.29 45.1459 17.1901C44.5437 17.0902 43.89 17.0274 43.3074 17.0133C42.0636 16.9574 40.7735 16.8659 39.47 16.7411C38.8207 16.6782 38.184 16.642 37.6013 16.6351C37.0874 16.6297 36.5032 16.5843 35.938 16.5056C35.3728 16.427 34.8574 16.3195 34.4706 16.1996C33.9485 16.0513 33.4612 15.9014 32.974 15.7514C32.4868 15.6015 31.9214 15.4121 31.3526 15.2281C30.8511 15.1994 30.3628 15.1809 29.8943 15.1729C29.5298 15.1797 29.1044 15.1596 28.6684 15.1152C28.2324 15.0707 27.8039 15.0036 27.4336 14.9219C27.6508 14.8413 27.8964 14.7702 28.155 14.6768C27.8 14.5535 27.5426 14.4278 27.3984 14.3073C27.2543 14.1868 27.2265 14.074 27.3167 13.9758C27.3694 13.8868 26.9835 13.7375 26.8501 13.6194C26.6784 13.5177 26.6462 13.4227 26.7576 13.347C26.869 13.2713 27.1188 13.2183 27.4744 13.1951C27.9154 13.1523 28.2743 13.0877 28.5364 13.0042C28.6231 12.9825 28.6672 12.9528 28.6648 12.9177C28.6623 12.8827 28.6133 12.8436 28.5223 12.8038C28.4312 12.764 28.3011 12.7249 28.1437 12.69C27.9863 12.6551 27.8067 12.6256 27.6213 12.6042C27.0534 12.5434 26.4894 12.504 25.9617 12.4882C25.0527 12.4592 24.1824 12.441 23.3509 12.4336C22.4313 12.4224 21.4083 12.3534 20.3857 12.2335C19.4701 12.1202 18.6493 12.0185 18.2016 11.8018C17.754 11.5851 17.0382 11.592 16.4878 11.4343C16.797 11.2921 17.3465 11.1933 18.0809 11.1479C18.5615 11.1316 18.9626 11.0891 19.2586 11.0229C19.5546 10.9567 19.7389 10.8684 19.7997 10.7635L18.1288 10.3237C16.7944 10.1166 16.0561 10.276 14.6142 10.193L16.0998 10.0306C16.1297 10.0145 16.1409 9.9957 16.1328 9.97496C15.9886 9.64655 15.7591 9.57633 14.2404 9.39421L13.3881 9.28864L12.039 9.16336C11.8229 9.09605 11.6735 9.02587 11.6056 8.95982C11.5377 8.89377 11.5537 8.83417 11.6521 8.78699C11.8498 8.70763 11.9098 8.60623 11.8269 8.49211C11.696 8.41652 11.6852 8.34684 11.7963 8.29515C11.9074 8.24345 12.1334 8.21302 12.4351 8.20914C12.6759 8.20312 12.6938 8.11576 12.8248 8.06629C12.9549 7.99811 13.1777 7.94579 13.4778 7.91289C13.778 7.87999 14.1485 7.86728 14.5643 7.87564C15.79 7.88247 16.9415 7.85688 17.9983 7.79931L17.8088 7.77585C18.9103 7.82639 19.9401 7.83251 20.848 7.79394C21.7578 7.74539 22.9255 7.77653 23.8919 7.74692C24.6786 7.75372 25.2776 7.68652 25.5617 7.55959C25.8368 7.4384 26.8367 7.46668 27.6024 7.48985C28.0559 7.50484 28.4943 7.51119 28.9128 7.50883C29.4745 7.4814 30.1768 7.50725 30.9026 7.58209C31.1204 7.60509 31.3349 7.61726 31.5256 7.61743C33.3707 7.64889 35.2125 7.6859 37.0327 7.70232C37.4529 7.69287 37.9455 7.71452 38.4529 7.76474C38.6661 7.78654 38.8737 7.79558 39.0476 7.79062C41.9237 7.74074 45.1692 7.868 47.9888 7.79918C48.3305 7.78292 48.7088 7.77954 49.1131 7.78913C50.0214 7.82956 50.8101 7.80354 51.3596 7.71503C51.6561 7.66795 52.0362 7.64201 52.4757 7.63885C52.9151 7.6357 53.4043 7.65541 53.912 7.69672C54.7569 7.75142 55.5378 7.75735 56.1723 7.71389C57.4093 7.67374 58.7102 7.65723 60.0648 7.66449C60.4798 7.67151 60.8446 7.65591 61.131 7.61888C61.4174 7.58186 61.6176 7.52441 61.7162 7.45098C61.3835 7.32617 61.0198 7.31099 60.6744 7.32196C59.3358 7.29352 58.0004 7.25951 56.6867 7.24611C55.5109 7.20782 54.3827 7.19612 53.3187 7.21117C52.7904 7.22815 52.1311 7.18944 51.4848 7.10348C50.6927 6.99462 49.8769 6.94054 49.2023 6.95217C48.7022 6.95506 48.1743 6.94568 47.6262 6.92418C47.2754 6.89824 46.9159 6.85371 46.5844 6.79515C46.4529 6.76972 46.3098 6.74833 46.1641 6.73236C46.0185 6.71639 45.8737 6.7062 45.7389 6.70242C45.604 6.69864 45.4819 6.70135 45.3808 6.71041C45.2796 6.71946 45.2014 6.73464 45.1511 6.75498C44.6437 6.92504 43.509 6.83826 42.5374 6.81945C41.0814 6.53162 39.9978 6.70198 38.637 6.53941C38.5294 6.52863 38.4233 6.5221 38.3254 6.52024C38.2274 6.51838 38.1396 6.52121 38.0673 6.52857C35.4338 6.62642 32.3645 6.54487 29.5996 6.57866C29.2947 6.5836 28.9408 6.56667 28.5781 6.52978C26.2078 6.28564 23.9289 6.21632 22.1869 6.3354C21.9749 6.34612 21.7338 6.34658 21.4745 6.33675C20.2834 6.23972 19.1444 6.20103 18.1526 6.22392C16.5981 6.21653 15.1036 6.22252 13.5241 6.20009C12.4354 6.16818 11.4803 6.20227 10.7545 6.29898C10.7314 6.33793 10.2479 6.29596 9.87756 6.2919C9.66457 6.19385 9.47991 6.1053 9.26032 6.01838C9.06402 5.91085 8.76997 5.80203 8.39819 5.69932C8.02641 5.5966 7.58562 5.50239 7.10551 5.42304C6.28469 5.32138 6.2026 5.17386 6.77696 5.11958C8.25739 4.94002 10.1189 4.86653 12.2248 4.9045C13.9851 4.90753 15.7771 4.91448 17.5624 4.93256C18.6038 4.94806 19.7015 4.9825 20.7146 4.98853C21.0564 5.00178 21.4076 5.0213 21.7644 5.04689C22.2023 5.08399 22.6274 5.10421 23.0169 5.10646C24.2675 5.07521 25.6632 5.10243 27.1374 5.18682C27.6774 5.20522 28.1959 5.21142 28.6852 5.20533C29.8429 5.18243 31.0979 5.19928 32.417 5.25546C33.2369 5.28714 34.0319 5.3037 34.7937 5.30498C35.0628 5.30844 35.2819 5.28183 35.541 5.30198C37.8221 5.51283 39.4373 5.36053 41.4902 5.44161C42.488 5.46422 43.4413 5.46428 44.3367 5.44181C46.084 5.44289 47.8801 5.46601 49.7176 5.51106C52.1475 5.58508 54.3993 5.5594 56.7194 5.58996C57.1775 5.59638 57.6198 5.59529 58.043 5.58668C60.102 5.5298 62.3384 5.54186 64.6976 5.62257C65.2333 5.63423 65.7144 5.61997 66.1109 5.5807C66.5073 5.54143 66.8106 5.47798 67.0016 5.39434C67.0824 5.33693 67.0301 5.26237 66.8546 5.18503C66.5634 5.08626 66.2346 4.98949 65.8735 4.89631L52.741 4.58363C52.1894 4.56731 51.6515 4.55852 51.1301 4.5573C49.5963 4.55458 48.0154 4.53026 46.3951 4.48445C44.794 4.44142 43.2645 4.44906 41.7133 4.4361C41.2565 4.43176 40.7875 4.42152 40.3083 4.40541C37.0696 4.27791 33.9115 4.20003 30.8562 4.17234C29.5709 4.16841 28.1823 4.1099 26.8719 4.09093C25.5615 4.07196 23.7696 4.06502 22.2151 4.05763L17.4025 4.05876C16.4559 4.05499 15.5342 4.06625 14.6159 4.07195C13.5015 3.66518 13.1174 3.56984 11.6303 3.39163C11.1216 3.3259 10.6041 3.28667 10.1386 3.27854C8.66235 3.31069 6.81009 3.17684 5.4102 3.19456C4.56549 3.18582 3.84871 3.23101 3.33325 3.3255C2.88579 3.39966 2.37412 3.45833 1.80613 3.50065C0.250213 3.15267 0.113091 2.92667 1.2835 2.83872C1.6006 2.81828 2.03739 2.8246 2.26637 2.7813C2.39776 2.75493 2.57725 2.73985 2.79054 2.73724C3.00383 2.73463 3.24501 2.74457 3.49518 2.76628C4.28472 2.82322 5.02475 2.83662 5.64101 2.80511C6.22098 2.76341 6.9319 2.76508 7.70523 2.80995C8.27349 2.88033 8.77297 2.78095 9.26441 2.75224C9.75585 2.72352 10.1591 2.67195 10.9267 2.7491C11.0673 2.76446 11.2068 2.77368 11.3346 2.77606C11.4625 2.77843 11.5752 2.77389 11.6641 2.76279C12.4885 2.71311 13.4723 2.71833 14.5356 2.77803C16.1663 2.83678 17.6963 2.83898 19.0726 2.78456C19.8964 2.73695 20.5989 2.65251 21.1524 2.53454C21.3033 2.49508 21.5273 2.47142 21.803 2.46583C23.1878 2.49044 24.6913 2.58308 26.2167 2.73776C26.7914 2.79974 27.3653 2.84877 27.9262 2.8838C29.079 2.96161 30.194 3.00521 31.2382 3.01331C32.7554 3.0146 34.3351 3.04454 35.9633 3.10286C36.968 3.13533 37.9362 3.14732 38.8563 3.13868C39.802 3.13461 40.8117 3.15938 41.8625 3.21242C42.9076 3.25564 43.8285 3.23074 44.5143 3.14073C44.7402 3.09223 44.9221 3.03463 45.0566 2.96902C43.5265 2.75552 41.9441 2.64701 40.6279 2.66536C40.1279 2.65121 39.7128 2.66549 39.186 2.58233L39.1695 2.61015C39.0647 2.6282 38.9065 2.63245 38.7252 2.62211C38.5438 2.61176 38.352 2.58754 38.1862 2.55405C38.2488 2.44834 38.3082 2.3482 38.3511 2.27587C39.3539 2.28863 40.3276 2.2876 41.2673 2.27276C42.0593 2.25142 43.1346 2.43834 43.8201 2.36798C45.1574 2.45597 46.0088 2.33448 47.208 2.36954C48.4071 2.40459 49.7279 2.5204 50.9271 2.55545C51.9735 2.57469 52.9895 2.57887 53.9695 2.56798C54.3078 2.55269 54.6977 2.55627 55.1154 2.57852C55.7026 2.62037 56.2488 2.62739 56.6913 2.59875C57.1338 2.57012 57.4547 2.50699 57.6174 2.41661C57.4642 2.33195 57.2579 2.22279 57.0199 2.10971C57.4577 2.01679 58.1225 1.97767 58.9159 1.99816L60.0369 1.99367C60.3339 1.99612 60.561 1.971 60.6711 1.92351C60.7813 1.87601 60.7661 1.80978 60.6286 1.7385C58.5031 1.37969 58.4248 1.34014 56.8647 1.57093L54.7934 1.46368L54.8283 1.46204ZM82.8451 2.44768L82.6873 2.42813L82.8451 2.44768ZM340.978 40.623L340.942 40.6842L340.981 40.6174L341.328 40.6604L341.351 40.6215L340.978 40.623ZM290.557 13.799C290.067 13.7322 289.571 13.6708 289.074 13.6152C288.943 13.6066 288.822 13.6046 288.718 13.6095C288.615 13.6144 288.534 13.626 288.481 13.6433C288.441 13.7101 288.719 13.7564 288.971 13.7877C289.29 13.8298 289.615 13.8565 289.914 13.8652C290.213 13.8738 290.474 13.8641 290.671 13.8369L290.956 13.8125L290.557 13.799ZM37.7375 30.0709C38.0607 30.0821 38.3671 30.084 38.6493 30.0763C39.9012 30.0224 41.0998 29.9439 42.3833 29.8938C44.0028 29.7668 45.8637 29.715 47.8962 29.7405C48.6903 29.753 49.3611 29.7118 49.8305 29.6218C50.1114 29.5735 50.4741 29.5452 50.8962 29.5388L56.2696 29.3921C56.6017 29.3617 56.8889 29.319 57.1243 29.2651C56.6508 29.2064 56.3351 29.1673 56.1457 29.1439C55.7526 29.1373 55.4148 29.1551 55.1661 29.1957C54.8989 29.2645 54.4473 29.2917 53.9009 29.2719C53.3494 29.2556 52.8115 29.2468 52.29 29.2456C51.3052 29.249 50.3138 29.2636 49.3257 29.2726C48.9412 29.4639 47.8066 29.3771 46.835 29.3583L46.0844 29.3668C43.6309 29.466 41.2872 29.6024 39.0648 29.7754C38.6352 29.8047 38.2652 29.8514 37.966 29.9141C37.8533 29.9629 37.8172 30.0239 37.8605 30.0921L37.7027 30.0725L37.7375 30.0709ZM147.301 48.3585C147.897 48.3715 148.516 48.3983 149.152 48.4384C149.641 48.4793 150.119 48.5042 150.565 48.5119C153.068 48.5548 155.676 48.6538 158.354 48.8077C158.704 48.831 159.04 48.8424 159.35 48.8415L161.542 48.8025C162.233 48.7805 162.246 48.7583 161.743 48.4631C161.326 48.4058 160.904 48.3535 160.48 48.3067C160.228 48.2754 159.818 48.2246 159.721 48.2724C159.136 48.4029 158.068 48.3184 157.169 48.2907C154.568 48.2194 151.886 48.1141 149.26 48.0277C148.704 48.0066 148.167 47.9959 147.652 47.9958C147.332 47.9914 147.041 47.9997 146.79 48.0205C146.717 48.0226 146.655 48.0288 146.61 48.0386C146.565 48.0484 146.536 48.0617 146.527 48.0774C146.517 48.0932 146.527 48.1112 146.556 48.1302C146.584 48.1491 146.63 48.1686 146.691 48.1874C146.906 48.2531 147.154 48.316 147.428 48.3741L147.301 48.3585ZM166.355 5.51677L168.917 5.48178C169.224 5.47802 169.485 5.43863 169.814 5.45548C171.568 5.50887 173.193 5.494 174.618 5.4115C175.103 5.37783 175.671 5.3711 176.29 5.39167C178.186 5.45264 179.974 5.45515 181.606 5.39912C182.661 5.38788 183.648 5.35012 184.553 5.2864C184.623 5.2716 184.666 5.25152 184.681 5.22752C184.695 5.20352 184.68 5.17616 184.636 5.14731C184.624 5.12908 184.593 5.10947 184.545 5.08984C184.496 5.07021 184.432 5.051 184.355 5.03356C184.278 5.01613 184.192 5.00087 184.101 4.98883C184.01 4.97679 183.918 4.96826 183.83 4.96384C182.686 4.87758 181.601 4.84754 180.662 4.87613C179.792 4.91035 178.855 4.92036 177.866 4.90601C176.919 4.90224 176.277 5.0138 175.107 4.92867C174.613 4.90064 174.176 4.90987 173.872 4.95481C173.259 5.02931 172.404 5.03345 171.459 4.96651C170.893 4.93262 170.353 4.9181 169.858 4.92347C168.657 4.94796 167.51 4.99696 166.398 5.04431C166.047 5.05527 165.671 5.05678 165.277 5.04881L159.706 4.9561C158.368 4.92766 157.032 4.89365 155.719 4.88025C154.644 4.85115 153.644 4.86026 152.754 4.90727C151.805 4.95668 150.771 4.97674 149.669 4.96707C147.959 4.99411 146.258 5.00445 144.396 5.00082C143.209 5.00305 141.993 4.99582 140.753 4.97355C140.125 4.94488 139.592 4.96823 139.257 5.03909C139.053 5.09743 138.573 5.0499 138.174 5.03636C136.048 4.90587 134.054 4.87495 132.331 4.94576C132.111 4.95729 131.87 4.96147 131.612 4.95822C129.953 4.95578 128.234 4.93997 126.642 4.93979C126.222 4.94529 125.828 4.96039 125.463 4.98489C125.502 5.02486 125.613 5.06818 125.774 5.10586C125.935 5.14355 126.132 5.17271 126.326 5.1873C127.832 5.29896 129.286 5.35795 130.628 5.36179C132.86 5.34756 135.199 5.37954 137.62 5.45739C139.498 5.53586 141.21 5.51934 142.63 5.40905C143.739 5.32675 145.183 5.35771 146.712 5.49662C147.366 5.56296 148.002 5.58949 148.531 5.57258C149.04 5.5504 149.624 5.55578 150.25 5.5884C151.568 5.65044 152.836 5.67922 154.028 5.67417C155.194 5.65134 156.281 5.58895 157.479 5.57002C158.676 5.55109 160.499 5.56194 161.976 5.52978C163.452 5.49763 164.912 5.49329 166.355 5.51677ZM60.1825 2.26253C60.3178 2.43455 60.7965 2.54162 61.3116 2.58749C63.0871 2.79117 64.8425 2.87784 66.283 2.83296C67.0611 2.77036 68.0985 2.79446 69.1912 2.90052C70.4635 3.01077 71.6527 3.02906 72.5493 2.95215C72.769 2.93871 72.9371 2.9103 73.0389 2.86946C73.0587 2.83607 73.0949 2.77488 73.1015 2.76375C73.0073 2.73553 72.8918 2.70938 72.7639 2.68733C72.6359 2.66527 72.499 2.64789 72.3637 2.63653L66.4823 2.43961L65.4574 2.39628C63.5854 2.28275 61.8016 2.23753 60.1825 2.26253ZM71.7511 4.98527C72.669 5.26617 72.6722 5.2606 73.1425 5.32481C75.4112 5.59153 77.6783 5.73552 79.6741 5.73963C80.1177 5.73881 80.4942 5.7117 80.7716 5.66056C80.9144 5.65363 81.0052 5.63161 81.0244 5.5993C81.0435 5.56699 80.9894 5.52701 80.8738 5.48809L80.1439 5.29019C78.8183 5.20452 77.5118 5.13645 76.2321 5.08638C74.7422 5.02726 73.4219 5.02498 71.8773 5.0009L71.7511 4.98527ZM147.191 47.1147C148.047 47.5013 148.05 47.4957 149.482 47.5954C150.48 47.6661 151.448 47.7076 152.357 47.7186C153.468 47.7308 154.607 47.7525 155.715 47.7702C155.986 47.7826 156.215 47.7723 156.359 47.7416C156.502 47.7108 156.55 47.6616 156.492 47.6037C156.346 47.5407 156.119 47.4799 155.846 47.4309C155.574 47.382 155.272 47.3479 154.991 47.3342L154.386 47.325C153.652 47.3057 152.89 47.277 152.181 47.2728C151.721 47.2888 151.188 47.2764 150.623 47.2366C150.059 47.1967 149.479 47.1305 148.928 47.0431L147.191 47.1147ZM76.3183 2.76802C76.5467 2.83497 76.805 2.89909 77.0863 2.95869C78.1757 3.12386 79.3287 3.21767 80.3192 3.22173C80.7876 3.23196 81.2159 3.19543 81.6927 3.24852C82.548 3.31945 83.3768 3.35724 84.1345 3.35984C84.1345 3.35984 84.3469 3.34435 84.4167 3.34104L84.5618 3.09624C84.2031 3.03953 83.829 2.9932 83.4568 2.95939C82.2077 2.89426 80.9802 2.84973 79.7561 2.79964C78.5319 2.74955 78.1051 2.72654 77.3045 2.70503C76.9474 2.71685 76.6171 2.73795 76.3183 2.76802ZM49.268 33.201L50.9027 33.702C51.4317 33.7456 51.9258 33.7534 52.31 33.7245C52.6942 33.6955 52.9473 33.6313 53.0309 33.5416C53.1655 33.4996 53.179 33.4374 53.0685 33.3681C52.958 33.2987 52.732 33.2276 52.4381 33.1696C52.1552 33.1008 51.8323 33.0392 51.4893 32.9885C51.1462 32.9378 50.7905 32.8991 50.4441 32.8748L49.268 33.201ZM62.8782 30.7063C61.809 30.6213 60.7864 30.5866 59.8885 30.6047C59.3228 30.6544 58.5563 30.6386 57.7461 30.5603C56.2727 30.4045 54.8523 30.3613 53.7848 30.44C53.7848 30.44 53.7452 30.5067 53.5642 30.5261C53.3833 30.5455 54.1009 30.5926 54.2588 30.6122C55.4165 30.66 56.5808 30.6967 57.5873 30.7139C58.2121 30.7131 58.873 30.7289 59.5587 30.761C60.5021 30.8104 61.3967 30.8264 62.2077 30.8084C62.2077 30.8084 62.5215 30.7935 62.8749 30.7118L62.8782 30.7063ZM177.059 4.60902C176.548 4.51465 175.995 4.43796 175.439 4.3847C174.884 4.33143 174.341 4.30298 173.853 4.30146C173.478 4.29654 173.175 4.32146 172.992 4.37227C172.808 4.42308 172.754 4.4969 172.839 4.58204C173.218 4.62896 173.723 4.69152 174.007 4.72671C174.992 4.72326 175.832 4.67802 177.059 4.60902ZM272.653 12.5609C272.243 12.4849 271.792 12.4269 271.351 12.3933C270.909 12.3597 270.495 12.352 270.156 12.3711C269.982 12.3794 270.1 12.4657 270.071 12.5157C270.051 12.5271 270.052 12.5412 270.071 12.5566C270.091 12.572 270.13 12.5882 270.183 12.6033C270.237 12.6185 270.303 12.6321 270.375 12.6428C270.447 12.6535 270.522 12.6608 270.593 12.664C271.037 12.6967 271.457 12.7065 271.814 12.6924C272.171 12.6783 272.455 12.6407 272.64 12.5831L272.653 12.5609ZM279.058 13.6468C278.995 13.602 278.86 13.5553 278.678 13.5152C278.497 13.4752 278.28 13.4445 278.069 13.4287C277.696 13.4266 277.357 13.4391 277.065 13.4656C276.747 13.486 276.976 13.6158 277.404 13.6928C277.586 13.7237 277.78 13.7478 277.971 13.7632C278.162 13.7786 278.345 13.7848 278.505 13.7814C278.665 13.7781 278.797 13.7651 278.892 13.7437C278.987 13.7222 279.042 13.6929 279.052 13.6579L279.058 13.6468ZM92.9456 3.24478C91.99 3.08463 91.2545 3.12492 90.4455 3.06055C89.6364 2.99618 89.4371 2.9894 89.5455 3.09241C89.6539 3.19541 90.2085 3.17452 90.5558 3.21753C91.025 3.27461 91.497 3.30738 91.919 3.31219C92.3411 3.317 92.6966 3.29366 92.9456 3.24478ZM292.071 30.3435C291.565 30.3076 291.069 30.2822 290.591 30.2677C290.528 30.2826 290.488 30.3021 290.475 30.325C290.461 30.348 290.474 30.3739 290.512 30.4013C290.512 30.4013 290.836 30.4832 291.025 30.5067C291.723 30.5871 291.757 30.4719 292.071 30.3435ZM363.608 45.2652C363.951 45.3733 364.111 45.4468 364.385 45.4987C364.511 45.5167 364.641 45.5298 364.766 45.537C364.891 45.5442 365.007 45.5453 365.106 45.5402C365.226 45.5091 365.255 45.4614 365.185 45.4067C365.185 45.4067 364.836 45.3097 364.703 45.3052C364.324 45.2823 363.956 45.2689 363.608 45.2652ZM76.6801 2.3291C75.954 2.23917 75.2594 2.15314 74.7567 2.25809C75.9097 2.37103 75.9098 2.37104 76.6801 2.3291ZM88.4406 3.35569C87.7074 3.16335 87.2772 3.1459 86.9252 3.168C86.8504 3.17356 86.8009 3.18597 86.7842 3.20333C86.7675 3.22069 86.7845 3.24207 86.8326 3.26422C86.8807 3.28638 86.9574 3.30811 87.0509 3.32613C87.1445 3.34415 87.2499 3.35747 87.3512 3.36409C87.7336 3.36962 88.0982 3.36681 88.4406 3.35569ZM126.177 3.43701C126.193 3.4092 126.213 3.37582 126.024 3.35236C125.974 3.34045 125.916 3.3302 125.855 3.32265C125.794 3.3151 125.732 3.31052 125.677 3.30935C125.677 3.30935 125.657 3.34273 125.644 3.36499L126.177 3.43701ZM152.382 49.6208L151.96 49.6462L152.15 49.6696L152.65 49.6838L152.382 49.6208ZM300.868 13.2127C300.71 13.1932 300.552 13.1736 300.529 13.2126C300.496 13.2186 300.475 13.2273 300.469 13.2379C300.462 13.2486 300.471 13.2609 300.493 13.2738C300.493 13.2738 300.714 13.3011 300.808 13.3129L300.868 13.2127ZM276.284 13.5242C276.18 13.522 276.087 13.5246 276.009 13.5319L275.989 13.5652L276.305 13.6044L276.284 13.5242ZM62.0444 21.4779C61.9225 21.4576 61.7932 21.4416 61.6656 21.431L61.5077 21.4114C61.5077 21.4114 61.6773 21.4683 61.772 21.48C61.8667 21.4917 61.9431 21.4773 62.0444 21.4779Z" fill="#DF6951"/>
</svg>
