<svg width="409" height="104" viewBox="0 0 409 104" fill="none" xmlns="http://www.w3.org/2000/svg">
<path d="M72.8283 25.462L73.7692 25.3039L71.9382 25.0771L72.8159 24.9111C73.6961 24.9126 74.8364 25.1613 75.457 25.0292C75.5328 24.9012 74.5744 24.8601 74.3298 24.7582C74.1134 24.6537 73.9368 24.5499 73.8021 24.448C74.2814 24.4491 74.8084 24.4737 75.3517 24.5205C76.0825 24.5968 76.7994 24.6339 77.4231 24.6277C78.6986 24.6483 79.9308 24.6278 81.3175 24.6323L80.8561 24.3243L82.6433 24.3964C82.8327 24.4198 83.0585 24.3821 83.2446 24.4111C84.7934 24.6567 85.4488 24.5229 86.1923 24.4119C86.3448 24.3832 86.5284 24.3618 86.7384 24.3482C88.8046 24.407 90.6677 24.7512 92.5284 24.9279C92.8786 24.9731 93.2145 25.031 93.5123 25.0976C94.1595 25.227 94.8794 25.3328 95.6062 25.405C96.3329 25.4773 97.0433 25.5138 97.6724 25.5113C99.0636 25.5084 100.635 25.5941 102.235 25.7599C102.711 25.8146 103.188 25.8506 103.634 25.8657C104.08 25.8809 104.486 25.8748 104.827 25.8479L105.908 26.0237C106.377 25.9524 106.972 25.9133 107.656 25.9087C108.341 25.9041 109.1 25.9342 109.889 25.9972C110.73 26.0654 111.583 26.1115 112.456 26.1837C114.257 26.3217 116.011 26.4061 117.661 26.4343C120.119 26.5177 122.521 26.5823 125.001 26.6864C126.552 26.7366 128.064 26.7643 129.527 26.7692C131.279 26.7888 133.174 26.8839 135.121 27.05C135.029 27.2058 134.175 27.1597 133.602 27.1545C131.754 27.1286 129.862 27.0615 127.96 27.0111C127.103 26.9914 126.27 26.984 125.466 26.9888C124.12 26.9823 122.702 26.9408 121.235 26.865C118.918 26.7815 116.675 26.7414 114.529 26.745C114.361 26.7512 114.206 26.7621 114.069 26.7776C114.04 26.7911 114.035 26.808 114.053 26.8268C114.07 26.8457 114.111 26.8658 114.171 26.8852C114.231 26.9046 114.308 26.9227 114.395 26.9377C114.481 26.9527 114.575 26.9642 114.666 26.971C115.518 27.0766 116.434 27.19 117.238 27.2059C117.269 27.2071 117.302 27.2099 117.335 27.2139C117.367 27.218 117.399 27.2233 117.427 27.2294C119.227 27.4523 120.706 27.4146 122.108 27.4508C124.435 27.5488 126.679 27.5946 128.805 27.5875C129.126 27.5879 129.473 27.6007 129.833 27.6252C132.059 27.7247 134.141 27.7358 135.981 27.6581C136.738 27.6384 137.442 27.5942 138.256 27.5935C138.757 27.5904 139.193 27.5622 139.538 27.5105C139.883 27.4589 140.13 27.3848 140.264 27.2928C140.607 27.3412 140.956 27.3844 141.305 27.4218C141.514 27.4432 141.715 27.4488 141.866 27.4377C142.017 27.4265 142.108 27.3992 142.121 27.3615C142.183 27.2558 141.706 27.2027 141.293 27.1574C141.542 27.1348 141.823 27.1214 142.13 27.1177C143.854 27.0936 145.703 27.1221 147.637 27.2026C149.138 27.2991 150.337 27.2206 151.917 27.3565C152.107 27.38 152.262 27.3456 152.437 27.3373C152.891 27.2938 153.458 27.284 154.087 27.3088C154.716 27.3336 155.388 27.3923 156.046 27.4798C156.865 27.2408 158.635 27.5138 159.942 27.5383C160.345 27.6598 159.883 27.6385 159.863 27.6718C159.843 27.7052 159.863 27.6718 159.705 27.6523C158.4 27.8243 156.612 27.8619 154.593 27.7596C154.219 27.76 153.863 27.7678 153.528 27.783C153.021 27.8045 152.449 27.8023 151.838 27.7767C151.169 27.7578 150.556 27.7668 150.026 27.8031C149.721 27.8025 149.463 27.8207 149.276 27.856C149.09 27.8914 148.98 27.9427 148.957 28.0052C149.161 28.0534 149.386 28.0975 149.625 28.1357C150.873 28.2867 152.118 28.3492 153.114 28.3109C154.847 28.245 156.91 28.3093 158.753 28.2868C159.999 28.2777 161.325 28.3037 162.706 28.3643C162.706 28.3643 162.67 28.4255 162.666 28.4311C162.83 28.4576 163.001 28.4788 163.172 28.4936C163.172 28.4936 163.172 28.4936 163.188 28.4658C163.112 28.4391 163.01 28.414 162.892 28.3933L162.482 28.3425C162.761 28.3293 163.021 28.2899 163.312 28.314C163.924 28.3587 164.51 28.3775 165.033 28.3695C165.556 28.3614 166.006 28.3265 166.356 28.2669C166.976 28.1906 167.747 28.1559 168.619 28.165C169.287 28.1567 169.931 28.1388 170.548 28.1114C170.548 28.1114 170.588 28.0446 170.88 28.0091C170.603 27.9654 170.315 27.9296 170.028 27.9036C168.779 27.8384 167.526 27.7789 166.299 27.7343C165.847 27.7295 165.422 27.737 165.032 27.7566C163.952 27.7795 162.738 27.747 161.462 27.6609C161.462 27.6609 161.21 27.6296 161.084 27.614C161.442 27.4672 162.676 27.6141 163.176 27.5147C163.479 27.5166 164.014 27.5291 163.996 27.5029C163.954 27.468 163.949 27.4355 163.981 27.4079C164.013 27.3803 164.082 27.3581 164.181 27.3431C164.281 27.328 164.409 27.3204 164.558 27.3208C164.706 27.3212 164.87 27.3296 165.038 27.3453C166.443 27.4306 167.767 27.4543 168.928 27.415C169.368 27.4158 169.861 27.441 170.298 27.4474C170.565 27.455 170.81 27.4507 171.017 27.4349C172.072 27.3181 173.492 27.3096 175.064 27.4106C175.824 27.4469 176.533 27.4517 177.157 27.4249C177.6 27.4201 177.788 27.5031 178.104 27.5422L179.444 27.6246L177.723 27.7279C178.091 27.9646 178.383 28.0426 178.984 28.0574C179.862 28.0796 180.716 28.0897 181.542 28.0875C182.153 28.0855 182.658 28.0346 183.485 28.1251C183.631 28.1399 183.772 28.1446 183.884 28.1386C184.853 28.0583 186.02 28.0398 187.305 28.0846C187.97 27.9341 189.103 28.0804 190.152 28.1983C190.49 28.0849 189.877 28.0329 189.511 27.9637C190.388 27.9708 191.272 27.9667 192.177 27.9833C192.449 27.9773 192.76 27.9876 193.086 28.0134C193.412 28.0392 193.743 28.0799 194.054 28.1322C194.205 28.166 194.388 28.1914 194.564 28.2032C194.74 28.215 194.896 28.2122 194.999 28.1955C195.469 28.1462 196.221 28.1916 196.61 28.1083C196.748 28.0892 196.945 28.0865 197.166 28.1008C197.387 28.115 197.618 28.1453 197.817 28.1862C197.599 28.199 197.405 28.2191 197.24 28.2461C196.645 28.3337 196.864 28.4802 197.619 28.6931C198.778 28.6814 199.962 28.6847 201.036 28.6446C201.635 28.6086 202.369 28.6198 203.155 28.6771C203.941 28.7344 204.748 28.8354 205.486 28.9689C205.753 29.0202 206.058 29.0557 206.339 29.0684C206.62 29.0811 206.858 29.0701 207.005 29.0374C207.096 28.9997 207.124 28.952 207.087 28.8984L206.329 28.8045C206.329 28.8045 206.359 28.7545 206.366 28.7433L207.455 28.7349C208.031 28.7346 208.632 28.7494 209.177 28.7452C209.977 28.7172 210.891 28.7328 211.861 28.7909C212.756 28.8505 213.636 28.8956 214.492 28.9257C215.321 28.9567 215.922 28.8579 216.71 28.8421C217.307 28.8302 217.963 28.8429 218.654 28.8797C219.847 28.945 220.942 28.9452 221.839 28.8801C222.885 29.2306 223.393 29.2876 224.364 29.1929L224.821 29.1658L224.946 29.241L225.295 29.2245C225.947 29.2098 226.6 29.195 227.281 29.1898C228.227 29.2223 229.25 29.3098 230.248 29.4438C230.437 29.4673 230.695 29.547 230.861 29.6094C231.028 29.6718 231.39 29.86 231.657 29.9826C231.366 30.0721 231.045 30.1576 230.814 30.2605C230.791 30.278 230.793 30.299 230.821 30.3216C230.848 30.3443 230.9 30.368 230.972 30.3909C231.045 30.4137 231.135 30.4351 231.236 30.4533C231.338 30.4715 231.447 30.486 231.556 30.4956C231.768 30.5164 231.978 30.5302 232.176 30.5366C233.151 30.5475 234.085 30.5394 234.969 30.5122C235.291 30.474 235.733 30.4703 236.224 30.5019C236.715 30.5335 237.227 30.5985 237.678 30.6866C238.834 30.6337 240.178 30.6493 241.616 30.7323C243.137 30.6818 244.974 30.784 246.395 30.6733C246.362 30.7289 246.509 30.8247 246.713 30.8799C247.037 30.9637 247.403 31.0414 247.797 31.1097L250.802 31.243C250.914 31.3115 251.054 31.3809 251.221 31.4502C251.335 31.5049 251.534 31.5585 251.775 31.5996C252.017 31.6406 252.282 31.6659 252.514 31.67C253.112 31.6904 253.613 31.6449 254.326 31.7571C253.228 31.8632 251.748 31.8491 250.148 31.7174C248.645 31.6172 247.199 31.5671 245.864 31.569C245.424 31.5683 244.844 31.5741 244.707 31.6347C244.402 31.806 243.605 31.7789 242.675 31.7473C241.944 31.7127 241.277 31.7166 240.727 31.7587C240.178 31.8007 239.763 31.8796 239.515 31.9891C239.453 32.0948 239.603 32.185 240.244 32.2465L242.911 32.4932C243.304 32.4614 243.676 32.4239 244.028 32.3807C244.619 32.3233 245.35 32.3076 246.163 32.3347C246.975 32.3618 247.848 32.431 248.713 32.537C249.155 32.5917 249.597 32.6465 249.918 32.6205C250.199 32.5906 250.458 32.5548 250.693 32.5134C250.74 32.4857 250.759 32.4537 250.749 32.4188C250.919 32.4351 251.089 32.4562 251.254 32.4814C252.57 32.7758 253.59 32.7708 254.516 32.6944C254.767 32.6717 254.958 32.6356 255.212 32.6073C255.466 32.5791 255.555 32.5424 255.786 32.5531C257.627 32.6496 258.157 32.3271 259.708 32.34C259.783 32.3274 259.83 32.3086 259.844 32.2853C259.858 32.2619 259.838 32.2349 259.787 32.2065C259.677 32.1809 259.551 32.1589 259.418 32.1425C259.286 32.1261 259.152 32.1159 259.029 32.1127C258.315 32.0713 257.685 32.084 257.246 32.1486C256.935 32.175 256.605 32.196 256.26 32.2116L254.706 31.7445C256.211 31.7873 257.634 31.787 258.943 31.7437C259.228 31.7193 259.712 31.7613 260.114 31.7692L263.07 31.8129C263.678 31.8165 264.196 31.7433 265.043 31.914C265.043 31.914 265.603 31.9415 265.752 31.9182C265.902 31.8949 266.564 31.75 266.959 31.6555C267.417 31.6825 268.052 31.7551 268.337 31.7307C268.836 31.6709 269.268 31.5942 269.625 31.502L271.411 31.6336C271.409 31.7505 271.344 31.8605 271.216 31.9619C271.077 32.0597 271.082 32.177 271.23 32.3044C271.379 32.4317 271.666 32.5655 272.07 32.6946L273.833 33.3789C274.121 33.4247 274.428 33.4555 274.712 33.4672C274.996 33.4789 275.243 33.4708 275.421 33.4441C276.18 33.3649 277.03 33.303 277.788 33.2237C278.767 33.3449 278.515 33.5407 279.227 33.7125L281.531 33.9979C281.883 34.2624 282.241 34.5158 281.172 34.6043C280.96 34.6198 281.103 34.7211 280.909 34.7628C281.74 34.9613 282.654 35.0207 283.496 35.143C283.828 35.2309 284.106 35.324 284.316 35.4177C284.547 35.5588 285.014 35.703 285.617 35.819C286.221 35.9351 286.911 36.0138 287.54 36.038C288.596 36.1123 289.676 36.2239 290.734 36.3678C291.095 36.4179 291.466 36.4543 291.822 36.4747C292.178 36.4951 292.511 36.4991 292.798 36.4862C293.821 36.4635 294.687 36.3856 295.34 36.2575C295.985 36.1488 296.855 36.0964 297.87 36.1051C299.607 36.3201 299.957 36.6442 301.008 36.9296L299.193 36.9616C299.127 37.0729 299.247 37.2132 298.503 37.2106C297.759 37.208 298.136 37.3145 298.377 37.422C298.462 37.4761 298.628 37.5317 298.847 37.5795C299.066 37.6273 299.324 37.6642 299.578 37.6841L301.123 37.8217C301.671 37.8741 302.201 37.8965 302.655 37.8864C303.109 37.8763 303.47 37.8341 303.698 37.7645C303.96 37.6984 304.321 37.6537 304.759 37.6331C305.317 37.5792 305.776 37.499 306.119 37.3955L308.301 37.5462C308.393 37.4423 308.693 37.3694 309.149 37.3399C309.605 37.3104 310.189 37.3261 310.803 37.3843L312.273 37.4768C313.907 37.5777 314.266 37.5445 314.745 37.2515L312.784 36.728C313.069 36.5901 313.344 36.4689 313.62 36.3477C313.131 36.1753 312.48 36.0122 311.731 35.8749C311.032 35.7275 310.314 35.5847 309.579 35.4471C308.781 35.3065 307.938 35.1842 306.948 35.0257C306.775 34.9745 306.524 34.8836 306.203 34.7961C305.882 34.7111 305.547 34.6277 305.199 34.5463C305.265 34.4351 305.324 34.3349 305.197 34.2058C305.807 34.247 306.437 34.3191 307.031 34.4155C307.625 34.512 308.163 34.6298 308.597 34.7583C308.67 34.7811 308.76 34.8025 308.86 34.821C308.96 34.8396 309.068 34.8549 309.178 34.8659C310.249 34.9449 310.761 35.1099 311.285 35.3121C311.638 35.4155 312.093 35.5073 312.587 35.5748C313.534 35.6921 314.461 35.8428 315.367 35.9729C315.644 36.0162 315.932 36.0519 316.219 36.0785C317.166 36.1628 318.118 36.2808 319.029 36.4265C319.326 36.4635 319.611 36.5124 319.86 36.5693C320.11 36.6261 320.316 36.6892 320.462 36.7532C320.236 36.8234 320.115 36.9119 320.104 37.0135C320.065 37.0803 320.73 37.2164 321.044 37.315C321.358 37.4137 320.742 37.3672 320.533 37.3771C319.674 37.3962 319.515 37.4362 320.029 37.6551C320.201 37.724 320.315 37.7928 320.364 37.8575C320.413 37.9221 320.396 37.9812 320.315 38.0309C320.193 38.2367 319.821 38.4058 319.566 38.6071C319.962 38.7397 320.624 38.8814 320.696 39.0456C320.731 39.082 320.804 39.1206 320.91 39.1586C321.017 39.1965 321.154 39.2329 321.311 39.2651C321.727 39.3346 322.105 39.4177 322.416 39.508C322.726 39.5983 322.962 39.6933 323.104 39.7857C323.15 39.824 323.262 39.8645 323.418 39.8993C323.573 39.934 323.76 39.9604 323.942 39.9731C324.158 39.9887 324.352 39.9867 324.484 39.9674C324.615 39.948 324.673 39.913 324.647 39.8694C324.652 39.7874 324.624 39.702 324.561 39.6139C324.597 39.5527 324.634 39.4915 324.49 39.3901C325.138 39.4271 325.817 39.5012 326.455 39.6045C327.093 39.7077 327.664 39.836 328.108 39.9756C328.599 40.1199 329.051 40.2715 329.595 40.4404C329.483 40.6295 329.483 40.6295 330.64 40.964L336.779 41.1271L338.037 41.3486C339.21 41.5417 339.489 41.5284 340.226 41.4286L340.722 41.3348C341.764 41.4638 342.964 41.6124 343.615 41.3706C343.827 41.5282 343.965 41.5811 343.917 41.6051C343.606 41.8376 343.065 42.0349 342.317 42.1892C342.126 42.2253 341.992 42.2803 341.769 42.3125C341.052 42.4941 340.886 42.7747 341.304 43.097C341.512 43.2396 341.814 43.3856 342.2 43.5303C341.635 43.7312 340.887 43.8976 339.975 44.0252C339.201 44.1238 338.564 44.2559 338.082 44.4177C337.649 44.5809 337 44.7035 336.174 44.7786C335.754 44.8105 335.448 44.8735 335.286 44.9613C335.238 45.1989 335.349 45.4533 335.616 45.7188C335.667 45.7996 335.81 45.8869 336.035 45.9738C336.26 46.0607 336.56 46.1449 336.912 46.2197C336.912 46.2197 337.082 46.2766 337.163 46.3106C337.231 46.5983 336.977 46.8519 336.418 47.0543C336.326 47.1117 336.138 47.1532 335.875 47.1742C335.612 47.1953 335.283 47.1951 334.923 47.1738C334.164 47.1395 333.455 47.1353 332.721 47.116C331.93 47.0888 331.233 47.1102 330.704 47.1782C330.175 47.2461 329.833 47.3579 329.714 47.502C329.706 47.5427 329.683 47.5818 329.644 47.6188C329.622 47.6379 329.61 47.6584 329.608 47.68L331.294 48.1516L329.387 48.3393C329.275 48.5285 330.19 48.6419 330.649 48.7823L330.365 48.8607C330 48.905 329.508 48.8202 329.063 48.771L328.621 48.7163L328.568 48.8053C328.293 48.9265 327.29 48.7903 326.898 48.8791C326.507 48.968 326.786 49.0683 327.373 49.1648C327.78 49.2366 328.218 49.2938 328.653 49.3322C329.088 49.3706 329.509 49.3891 329.885 49.3864C330.109 49.3769 330.294 49.3552 330.431 49.3226C331.222 49.184 332.097 49.0648 333.048 48.966C333.777 48.8772 334.69 48.8395 335.723 48.8554C336.026 48.8487 336.391 48.8697 336.755 48.9147C337.119 48.9598 337.458 49.026 337.712 49.1017L338.247 49.1142C338.247 49.1142 338.539 49.1922 338.498 49.205C338.294 49.4362 338.531 49.7189 339.172 50.0111L338.614 50.0376C337.817 50.0105 338.323 50.1866 338.203 50.2734C337.637 50.257 336.901 50.1837 336.633 50.2938L336.231 50.2858L336.388 50.3054L336.579 50.2693L337.329 50.4338C336.974 50.4615 336.716 50.4953 336.403 50.5102C336.229 50.5231 336.091 50.546 335.997 50.5774C335.903 50.6088 335.854 50.6481 335.854 50.693C335.855 50.762 335.761 50.8201 335.582 50.8617C335.403 50.9033 335.145 50.9271 334.832 50.9307C334.458 50.9322 334.244 51.0072 334.025 51.0339L334.977 51.4862C334.977 51.4862 334.503 51.4275 334.761 51.5072L334.794 51.4516L335.371 51.5648C335.787 51.6641 336.077 51.6881 336.323 51.617C336.568 51.5459 336.512 51.6405 336.63 51.6133C336.587 51.6856 336.32 51.7361 336.091 51.7794C335.826 51.8134 335.527 51.8385 335.2 51.8541C335.79 52.1722 335.819 52.1816 334.956 52.2658C334.092 52.35 334.39 52.4765 333.668 52.4945C332.945 52.5126 333.767 52.7278 334.25 52.7697C334.609 52.7973 334.974 52.8403 335.321 52.8957C335.669 52.9511 335.99 53.0176 336.263 53.0906L336.118 53.3354C335.905 53.3152 335.692 53.2888 335.486 53.2572C334.786 53.1228 334.15 52.9962 333.527 53.0743L333.824 53.2604L331.651 53.1525C331.707 53.2919 332.039 53.4507 332.575 53.5953C332.494 53.6748 332.444 53.7585 332.426 53.8457C332.39 53.9069 332.176 53.8684 332.036 53.875C331.539 53.8853 331.13 53.9267 330.847 53.9958C330.564 54.0648 330.415 54.1594 330.412 54.2711C330.356 54.3656 331.121 54.5619 331.599 54.5554C332.793 54.5743 334.085 54.6471 335.403 54.7698C336.207 54.7857 336.32 54.537 337.643 54.7068C337.669 54.8216 337.5 54.9146 337.16 54.9717C336.821 55.0288 336.33 55.0468 335.761 55.0231C336.085 55.2782 337.875 55.3447 337.954 55.6113C337.508 55.5924 337.032 55.5481 336.571 55.4827C336.111 55.4173 335.682 55.3331 335.329 55.2383C335.252 55.215 335.157 55.1934 335.05 55.1757C334.944 55.158 334.83 55.1447 334.72 55.137C334.609 55.1293 334.506 55.1274 334.419 55.1316C334.332 55.1358 334.264 55.1459 334.222 55.161C334.47 55.2574 334.743 55.3688 335.054 55.473C335.365 55.5772 335.44 55.6223 335.664 55.6442C337.337 55.8514 338.133 56.2246 339.58 56.4696C339.959 56.5165 340.006 56.6657 339.678 56.6488C339.365 56.632 339.081 56.6342 338.86 56.6552C338.638 56.6762 338.486 56.7152 338.421 56.7679C338.178 56.8293 337.876 56.8782 337.521 56.9133C339.006 57.2963 340.776 57.6347 342.666 57.8968C343.023 57.9486 343.397 57.9801 343.73 57.9869C344.785 57.9872 345.904 58.0176 347.066 58.0774C347.477 58.0937 347.858 58.0922 348.186 58.0729C349.264 58.0272 350.12 58.1273 350.902 58.4092L352.195 58.8561C352.153 58.9284 351.935 59.009 351.768 59.1197L352.779 59.3584L360.492 58.8087L362.04 59.3409L364.261 59.3113C364.431 59.3267 364.602 59.3479 364.766 59.3739C365.215 59.531 365.566 59.682 366.053 59.8319C366.54 59.9818 367.411 60 368.018 60.1767C368.625 60.3534 369.232 60.357 369.983 60.462C370.054 60.5988 369.981 60.7219 369.769 60.8236C369.7 60.9405 369.318 61.0127 369.252 61.1239C369.26 61.2364 369.118 61.3319 368.84 61.4017C368.562 61.4715 368.156 61.5135 367.66 61.5239C366.27 61.7633 364.594 61.9338 362.683 62.0302C362.515 62.0372 362.376 62.0534 362.274 62.0778C362.172 62.1022 362.11 62.1342 362.091 62.1719C362.094 62.281 361.966 62.3753 361.718 62.4479C361.47 62.5205 361.107 62.5695 360.656 62.5914C360.536 62.5958 360.446 62.6095 360.396 62.6308C360.225 62.6445 360.1 62.6708 360.034 62.7071C359.968 62.7435 359.963 62.7886 360.019 62.8381C360.074 62.8877 360.19 62.94 360.353 62.99C360.516 63.04 360.722 63.086 360.951 63.1235C361.283 63.1841 361.622 63.242 361.966 63.2971C361.947 63.3305 361.605 63.3359 361.654 63.3659C361.79 63.4619 361.821 63.5519 361.746 63.6286C361.671 63.7054 361.492 63.7668 361.223 63.8082L363.066 64.5859C364.185 64.6936 365.283 64.8763 366.151 65.0993C366.152 65.1358 366.102 65.1664 366.006 65.1881C365.91 65.2097 365.771 65.2216 365.603 65.2226C365.153 65.2385 364.728 65.2695 364.243 65.2871C363.947 65.3002 363.7 65.3291 363.518 65.3721C363.335 65.4151 363.221 65.4714 363.18 65.5376L364.262 65.8269C363.916 65.8974 363.658 65.9312 363.429 65.9745C363.559 66.0655 363.782 66.1595 364.082 66.2494C364.381 66.3393 364.748 66.4226 365.155 66.4929C365.265 66.5074 365.376 66.518 365.483 66.5241C365.59 66.5301 365.69 66.5315 365.778 66.5282C366.617 66.429 367.597 66.6042 368.549 66.7699C369.502 66.9356 370.019 67.0355 370.722 67.1644L372.067 67.1817C372.407 67.2427 372.711 67.3144 372.954 67.3912C373.197 67.4679 373.372 67.5475 373.465 67.6236C373.393 67.746 372.755 67.679 372.375 67.6916C371.473 67.7678 370.287 67.7515 369.013 67.6455C368.698 67.6064 368.374 67.638 368.067 67.6417C367.404 67.657 366.767 67.6818 366.159 67.716C365.758 67.7479 365.384 67.7873 365.038 67.834C364.946 67.9898 366.4 68.1101 365.575 68.1871C365.859 68.2223 365.965 68.2713 366.111 68.2536C367.047 68.3547 367.969 68.4047 368.771 68.3978C370.309 68.3763 372.055 68.4473 373.867 68.6049C375.822 68.7683 377.698 68.8368 379.339 68.805C379.965 68.8032 380.663 68.8366 381.383 68.9028C382.232 68.9945 383.075 69.0521 383.858 69.072C384.117 69.0727 384.406 69.0883 384.7 69.1175C384.995 69.1468 385.288 69.1888 385.554 69.2403C385.531 69.2792 385.277 69.3075 385.334 69.3264C386.144 69.6179 386.472 69.9213 387.719 70.2191C388.571 70.3246 389.55 70.4458 390.107 70.3059C390.665 70.1659 390.465 70.0456 389.356 69.6872C389.596 69.6821 389.886 69.6988 390.175 69.7345C390.463 69.7703 390.732 69.8227 390.934 69.8827L391.894 70.1509L392.758 70.4072C392.682 70.5352 392.623 70.6353 392.56 70.7411C392.461 70.8533 392.57 70.99 392.871 71.1319C393.052 71.2093 393.211 71.2868 393.344 71.3636C393.884 71.6707 394.041 71.961 393.796 72.2019C393.326 72.5483 392.672 72.867 391.842 73.1543C390.965 73.4338 390.484 73.7864 389.762 74.0911C389.393 74.2298 388.945 74.3541 388.423 74.4627C387.433 74.7044 386.348 74.9343 385.354 75.1815C384.36 75.4286 383.238 75.6062 382.135 75.8099C380.492 76.0517 378.716 76.2605 376.817 76.4352C375.642 76.5883 374.435 76.7374 373.348 76.9134C372.064 77.1117 370.556 77.2541 368.861 77.337C367.364 77.4363 366.026 77.5832 364.874 77.7748C364.753 77.7956 364.658 77.8219 364.59 77.8532C364.383 78.0486 363.801 78.1863 362.935 78.2453C362.987 78.3025 363.055 78.3607 363.136 78.4196C363.257 78.4898 363.282 78.5554 363.208 78.6081C363.135 78.6607 362.966 78.698 362.724 78.7149C362.031 78.7633 361.455 78.8455 361.021 78.9579C360.862 78.986 360.763 79.0271 360.733 79.0775C360.704 79.1279 360.743 79.1861 360.85 79.2472C360.944 79.31 360.951 79.3678 360.87 79.4131C360.788 79.4585 360.623 79.4892 360.394 79.5013C359.807 79.5608 359.179 79.6086 358.513 79.6446C357.096 79.7238 355.449 79.7228 353.669 79.6418C353.48 79.6183 353.289 79.6544 353.068 79.627C351.809 79.5362 350.641 79.5221 349.703 79.5865C348.604 79.6116 347.455 79.6066 346.295 79.6184C344.621 79.6105 343.076 79.6583 341.704 79.7604C340.136 79.6617 339.255 79.8333 337.931 79.8366C336.709 79.8542 335.551 79.8964 334.468 79.963C332.721 80.0512 330.981 80.1283 329.259 80.2316C327.644 80.2808 326.157 80.3749 324.823 80.5123C324.312 80.5743 323.387 80.4777 323.038 80.6077C322.69 80.7378 321.988 80.7224 321.42 80.7656L319.628 80.8722C319.32 80.8975 318.982 80.9136 318.617 80.9201C316.952 80.9288 315.798 81.1025 314.252 81.1379L314.094 81.1184C311.349 81.3765 308.208 81.5182 304.763 81.5393C302.751 81.6185 300.55 81.6147 298.415 81.6727C297.905 81.7888 296.703 81.6457 296.064 81.7517C295.425 81.8577 294.381 81.7883 293.558 81.8057C292.734 81.8231 291.929 81.8667 291.049 81.8652C290.284 81.8657 289.639 81.913 289.171 82.0029C288.103 82.1515 286.802 82.2388 285.325 82.261C283.37 82.2996 281.522 82.3873 279.534 82.368C279.563 82.4763 279.441 82.5684 279.181 82.6349C278.921 82.7014 278.533 82.7398 278.056 82.7463C275.931 82.7876 274.003 82.8952 271.849 82.9271L271.273 82.9274L264.831 82.9895C263.096 83.0015 261.424 83.0214 259.654 83.035C258.991 82.9529 258.975 83.0943 258.516 83.0673C258.388 82.9977 258.237 82.967 258.011 83.0048L257.961 83.0882L250.61 83.1989C247.732 83.2799 244.704 83.3042 241.553 83.2716C240.805 83.2798 240.108 83.3074 239.471 83.3541C238.88 83.3711 238.265 83.3787 237.628 83.3766C236.766 83.3556 235.924 83.345 235.105 83.3448C232.951 83.3767 230.691 83.3595 228.332 83.3362C225.974 83.3128 224.187 83.3543 222.088 83.3511C220.667 83.3482 219.252 83.3342 217.78 83.3013C217.078 83.2859 216.212 83.2026 215.485 83.1722C214.757 83.1418 214.52 83.1423 214.424 83.1901C214.107 83.3241 213.311 83.2374 212.675 83.2244C211.434 83.2021 211.258 83.1564 210.921 82.8101L212.443 82.7C212.817 82.6645 213.286 82.6583 213.806 82.6819C214.326 82.7055 214.88 82.7582 215.413 82.835C215.623 82.8678 215.843 82.8938 216.059 82.9114C216.276 82.929 216.485 82.9378 216.674 82.9374C218.21 82.9186 219.725 82.8792 221.201 82.8471L221.417 82.826L221.43 82.5172C221.235 82.4868 221.033 82.4618 220.831 82.4429L213.426 82.2425C211.727 82.1933 209.963 82.0823 208.296 82.037C206.628 81.9917 205.729 81.964 204.436 81.9172C203.89 81.8906 203.333 81.8556 202.769 81.8124C202.802 81.7827 202.821 81.751 202.826 81.7178C202.855 81.6678 202.895 81.601 202.655 81.5474C202.394 81.4719 202.045 81.4073 201.678 81.3667C201.333 81.3399 200.999 81.3247 200.688 81.3217C199.186 81.2958 197.471 81.1327 195.908 80.8671L195.363 81.0444C193.016 80.9448 190.634 80.8468 188.182 80.7522C187.691 80.7264 187.176 80.6769 186.675 80.6074C186.139 80.5409 185.645 80.4021 185.08 80.3262C184.522 80.2715 183.967 80.2289 183.427 80.1991C183.573 80.1535 183.766 80.117 183.999 80.0909C184.229 80.0817 184.396 80.0532 184.477 80.0095C184.558 79.9658 184.548 79.9092 184.448 79.8479C184.274 79.7426 184.197 79.6435 184.577 79.6309C184.928 79.6069 185.18 79.5549 185.302 79.4811C185.423 79.4073 185.41 79.3148 185.264 79.2144C185.2 79.1557 185.155 79.0982 185.129 79.0424L184.971 79.0228C184.451 78.815 183.411 78.7399 182.664 78.5699C182.312 78.5205 181.947 78.4922 181.628 78.4892C180.802 78.4527 179.998 78.4367 179.145 78.3907C178.737 78.3695 178.31 78.3309 177.89 78.2772C177.29 78.2029 177.227 78.1951 176.879 77.925C177.42 77.9297 177.849 77.8894 178.093 77.8108C178.337 77.7322 178.382 77.6202 178.219 77.4938C177.773 77.2175 177.301 76.9263 175.283 76.73C175.941 76.7203 176.575 76.7011 177.181 76.6724C177.357 76.6663 177.489 76.646 177.559 76.6143C177.629 76.5826 177.634 76.541 177.573 76.4951C177.511 76.4492 177.387 76.4011 177.216 76.3574C177.046 76.3137 176.837 76.2763 176.618 76.2503C175.552 76.0941 174.441 75.9895 173.408 75.9484C172.538 75.9302 171.752 75.9404 170.736 75.9399L169.536 75.7913C169.556 75.7579 169.38 75.7122 169.424 75.6939C169.729 75.5226 170.066 75.3553 170.412 75.1712C169.859 75.0718 169.38 74.9519 169.029 74.825C168.679 74.6982 168.472 74.5696 168.431 74.4541C168.401 74.4192 168.409 74.3874 168.454 74.361C168.499 74.3346 168.58 74.3142 168.691 74.3012C169.007 74.2788 169.251 74.2361 169.403 74.1764C169.556 74.1166 169.614 74.0414 169.573 73.9565L168.64 73.6439C165.831 73.4208 163.073 73.2615 160.416 73.1688L158.017 73.0987C157.728 73.015 157.818 72.9784 158.09 72.9763C158.362 72.9741 159.128 72.9973 159.663 73.0098C160.125 73.0262 160.535 73.0154 160.854 72.9785C161.172 72.9416 161.389 72.8798 161.482 72.7992L160.677 72.4426C160.716 72.3759 160.772 72.2813 161.209 72.2876C161.508 72.2799 161.727 72.2463 161.833 72.1922C161.939 72.1382 161.925 72.0668 161.792 71.9896C161.772 71.9338 161.802 71.8829 161.881 71.8394C162.527 71.8358 163.17 71.8377 163.756 71.8208C164.029 71.8151 164.26 71.7945 164.432 71.7602C164.605 71.7259 164.715 71.6787 164.755 71.622C164.776 71.5666 164.725 71.5035 164.605 71.4378C164.485 71.3721 164.3 71.3057 164.064 71.2438C163.146 71.1673 162.305 71.1663 161.728 71.2411C161.522 71.2997 161.191 71.3317 160.779 71.3329C160.367 71.3341 159.893 71.3044 159.419 71.2478C158.877 71.1825 158.336 71.1538 157.894 71.1669C157.451 71.1799 157.136 71.2339 157.005 71.319C156.449 71.286 155.955 71.2607 155.469 71.2243C154.894 71.1784 154.352 71.1648 153.899 71.1852C153.175 71.1995 152.394 71.1911 151.576 71.1602C149.215 71.0828 146.852 71.0111 144.567 70.9789C143.962 70.9697 143.439 70.9945 142.841 70.9742C142.243 70.9539 141.77 71.0087 141.022 70.8982C140.88 70.881 140.737 70.87 140.604 70.866C140.471 70.862 140.352 70.8651 140.257 70.875C138.944 70.9624 137.404 70.9748 135.728 70.9114C133.433 70.8958 131.053 70.8519 128.755 70.8419C128.08 70.8505 127.443 70.8735 126.85 70.9106C126.399 70.9331 125.926 70.9483 125.434 70.9562C125.057 70.9632 124.696 70.9425 124.76 71.0638C124.823 71.1852 124.259 71.1092 123.933 71.0868C122.814 71.028 121.671 70.9483 120.516 70.8487C119.378 70.7405 118.262 70.6775 117.237 70.6636C116.496 70.6554 115.732 70.6863 114.78 70.5205C114.816 70.4593 114.853 70.3981 115.06 70.3342C114.283 70.1584 113.397 70.0071 112.475 69.8929C111.553 69.7787 110.621 69.7048 109.756 69.6773L108.564 69.3446C108.27 69.3055 107.971 69.277 107.683 69.2609C107.396 69.2448 107.126 69.2414 106.891 69.2508C106.71 69.2557 106.488 69.2433 106.268 69.216C106.048 69.1887 105.843 69.1483 105.692 69.1023C105.465 69.0437 105.189 68.9931 104.897 68.957C104.605 68.9208 104.31 68.9006 104.05 68.8989C103.231 68.8627 102.356 68.7792 101.516 68.6568C101.298 68.5851 101.162 68.5109 101.123 68.4436C101.085 68.3762 101.147 68.3186 101.301 68.2777C101.549 68.2056 101.688 68.1137 101.71 68.0077C101.732 67.9016 101.637 67.7835 101.429 67.6606C101.323 67.5852 101.287 67.5137 101.325 67.4506C101.362 67.3875 101.472 67.334 101.647 67.2934C102.3 67.1056 102.125 67.0004 101.056 66.6888C100.882 66.6369 100.673 66.5883 100.441 66.5462C100.21 66.5042 99.9605 66.4695 99.7099 66.4444C99.1219 66.3936 98.5419 66.3559 97.9806 66.3318C97.6649 66.2927 97.3412 66.3242 96.9774 66.3091C95.1586 66.2331 94.8924 66.1105 94.3034 65.8465L93.8741 65.656C93.0779 65.5016 92.2072 65.3735 91.3246 65.2807C90.442 65.1879 89.5696 65.1328 88.7702 65.1194C88.4524 65.1184 88.0871 65.092 87.7302 65.0443C86.5688 64.8985 85.3927 64.7976 84.2797 64.7483C83.5861 64.7206 82.8385 64.6488 82.1266 64.5415C81.4147 64.4343 80.7687 64.2962 80.2664 64.1438C79.8152 64.0065 79.2249 63.8833 78.5777 63.7913C77.82 63.6975 77.7498 63.5873 78.1729 63.5023C78.596 63.4174 79.3047 63.308 79.9337 63.2187C80.1526 63.1884 80.2882 63.139 80.3254 63.0762C80.3627 63.0133 80.3001 62.9394 80.1447 62.8627C80.0449 62.7314 80.0276 62.6068 80.0932 62.492C80.1283 62.4443 80.1041 62.3896 80.0222 62.3315C79.9404 62.2735 79.8028 62.2135 79.6187 62.1557C79.4346 62.0978 79.2084 62.0433 78.9552 61.996C78.702 61.9486 78.4277 61.9095 78.1509 61.8812C76.9828 61.7365 75.8463 61.5957 74.6551 61.49C74.1559 61.4402 73.6572 61.3784 73.1713 61.3062C72.1766 61.1277 71.1125 60.9797 70.0407 60.8707C69.532 60.822 69.0347 60.7368 68.6563 60.6336C67.463 60.3555 66.3635 60.0631 65.3776 59.7617C65.1399 59.6682 64.8291 59.577 64.4643 59.4938C64.0996 59.4106 63.6889 59.3372 63.2581 59.2782C62.9109 59.2352 62.6282 59.1405 62.3605 59.0775C62.166 58.9316 62.1452 58.7966 62.3001 58.6852C62.4551 58.5738 62.7806 58.4897 63.2462 58.4407C63.6877 58.3819 64.1009 58.3136 64.4825 58.2415C64.9426 58.1831 65.4895 58.1481 66.103 58.1376C66.8295 58.1063 67.3668 58.0167 67.6447 57.8806C65.6557 57.6343 63.7643 57.2806 62.021 57.3633L60.6964 57.1395C60.7491 57.0505 60.7953 56.9726 60.8381 56.9003C61.1532 56.7686 61.2516 56.6026 61.125 56.4162C61.0206 56.3261 61.0301 56.2441 61.1523 56.1785C61.2745 56.1129 61.5051 56.066 61.8209 56.0426C63.6915 55.8025 65.8546 55.6404 67.6088 55.368C68.1588 55.3169 68.8027 55.2936 69.5133 55.2993C70.2008 55.2829 70.172 55.1599 69.3809 55.0082C68.9368 54.9289 68.4842 54.8529 68.0247 54.7805C65.9986 54.7684 65.1732 55.132 62.8611 55.0308L61.7895 54.5517C61.4997 54.5443 61.2184 54.5414 60.9475 54.543L57.0706 54.7376C56.7477 54.7474 56.4963 54.7807 56.3451 54.8337C56.1939 54.8868 56.1488 54.9575 56.215 55.0378C56.2412 55.136 56.1878 55.2261 56.0567 55.3048C55.9722 55.3599 56.0263 55.4332 56.2071 55.5086C56.6147 55.6785 56.0917 55.7033 55.7614 55.746C55.677 55.7502 55.5797 55.7497 55.475 55.7447C55.3704 55.7396 55.2606 55.7301 55.1519 55.7167C55.0432 55.7032 54.9379 55.6861 54.842 55.6663C54.7462 55.6465 54.6616 55.6244 54.5934 55.6013C54.0114 55.4397 53.5024 55.2691 52.9304 55.0908C53.3365 54.9201 52.8587 54.64 53.4924 54.4856C53.5633 54.4547 53.5916 54.4171 53.5757 54.3751C53.5599 54.3331 53.5 54.2875 53.4 54.2412C53.1419 54.1217 53.019 54.0051 53.0437 53.9033C53.0683 53.8015 53.2396 53.7181 53.5403 53.6614L53.5766 53.6002C52.7835 53.3945 52.9936 53.2115 52.6822 52.9938L51.9193 52.8515C50.0213 52.5089 50.018 52.5145 48.3839 52.5271C48.0545 52.3967 48.473 52.3769 48.7868 52.362L51.4151 52.2157C53.1334 52.118 54.9018 52.0504 56.8214 52.0134C58.741 51.9765 60.8811 51.8533 62.8652 51.7647C62.9655 51.7578 63.0423 51.7442 63.089 51.7251C63.1357 51.7059 63.151 51.6817 63.1338 51.6546C63.0549 51.6252 62.9516 51.5969 62.8317 51.5717C62.7117 51.5465 62.5781 51.5251 62.4406 51.509C61.8092 51.4308 61.1613 51.3804 60.4885 51.315L59.2341 51.2015L58.8482 51.0522C58.5971 50.9613 58.4255 50.8505 58.0914 50.7852C57.8161 50.7366 57.5172 50.6996 57.2259 50.6782C56.9346 50.6569 56.6616 50.6518 56.4352 50.6637C55.8076 50.6935 55.2398 50.7366 54.6405 50.7759C54.0411 50.8151 53.7108 50.8578 53.1911 50.877C52.1352 50.8858 51.1147 50.9089 50.1341 50.9463C49.3082 51.0348 48.5442 51.1397 47.8471 51.2602C47.4122 51.3079 47.0055 51.365 46.2629 51.3029C45.9106 51.2466 45.6067 51.1726 45.4051 51.0941C45.2035 51.0155 45.1173 50.9375 45.1617 50.8739C45.2015 50.824 45.3143 50.7846 45.4894 50.7592C45.6645 50.7339 45.8961 50.7235 46.1624 50.7291C46.9078 50.7199 47.5971 50.6891 48.2164 50.6371C49.0783 50.543 50.1276 50.5024 51.303 50.5178C51.7016 50.5313 51.9688 50.4808 52.3175 50.4643C52.6662 50.4477 52.9616 50.4067 53.3503 50.4369C54.558 50.5148 55.137 50.3954 55.8607 50.3179C56.1057 50.2835 56.2575 50.2279 56.2994 50.1572C56.3413 50.0865 56.2717 50.0035 56.0982 49.9173C55.7641 49.7456 55.3555 49.5729 54.8787 49.402C54.6333 49.3179 54.3189 49.2381 53.9601 49.1689C53.6014 49.0996 53.208 49.0426 52.811 49.0025C52.5733 48.8974 52.4466 48.794 52.4421 48.7017C52.4377 48.6093 52.5557 48.5311 52.7855 48.4739C53.3712 48.3433 53.8904 48.2106 55.2026 48.2835C55.8196 48.3114 56.4002 48.3167 56.9215 48.2993C58.0776 48.2755 59.4112 48.3277 60.7966 48.4508C61.155 48.4824 61.5073 48.5039 61.8431 48.5147C64.2381 48.5904 66.5201 48.6282 68.8086 48.6548C70.021 48.6676 71.2432 48.6638 72.5089 48.7011C75.4769 48.782 78.1786 48.7404 81.0434 48.7668C82.5438 48.7803 83.8868 48.7258 85.0019 48.6061C85.219 48.5659 85.4055 48.5191 85.5592 48.4661C84.8203 48.327 84.0086 48.2169 83.202 48.1462C82.3953 48.0756 81.6207 48.0469 80.9524 48.0627C80.585 48.1017 80.1101 48.1088 79.5807 48.0833C79.0513 48.0578 78.4882 48.0007 77.9542 47.9183L79.5068 47.8717C80.5363 47.85 81.5908 47.8432 82.5921 47.8119C84.1828 47.7581 85.6571 47.672 87.3043 47.6371C88.6342 47.6051 89.8243 47.5231 90.8372 47.3939C91.569 47.2996 92.4047 47.2328 93.3274 47.1947C93.9833 47.1744 93.9833 47.1744 94.4026 46.9815C94.07 46.8567 93.6398 46.8392 93.2346 46.8368C90.8052 46.7583 88.4932 46.7445 86.3458 46.7958C85.2623 46.8004 84.3011 46.8533 83.5084 46.952C83.3142 46.9937 82.8176 46.9739 82.419 46.9604C81.1693 46.9398 79.975 46.9458 78.8502 46.9783C77.2952 47.0324 75.5633 47.0195 73.7218 46.9403C73.3726 46.8433 73.7745 46.8513 73.7943 46.8179C75.2206 46.7556 76.6186 46.6839 78.0732 46.6312C78.4708 46.6124 78.8958 46.6031 79.3435 46.6034C81.0147 46.6361 82.4074 46.5455 83.3264 46.3442C83.3725 46.2663 83.9771 46.2755 84.2442 46.225C84.3756 46.1813 84.4632 46.1298 84.5042 46.0721C84.115 45.9283 83.6749 45.9275 83.3362 45.9274C82.3531 45.9434 81.4073 45.9739 80.5035 46.0185C79.6633 46.061 78.7332 46.0723 77.7385 46.0523C77.0044 46.033 76.3768 46.0628 75.6361 46.0546C75.2343 46.0375 74.8184 46.0101 74.3968 45.9728C74.8662 45.8726 75.5042 45.811 76.266 45.7923C76.8437 45.7324 77.566 45.7144 77.6583 45.5586C77.3855 45.4472 77.0816 45.4454 76.8375 45.4569C76.3294 45.4565 75.8387 45.4635 75.3679 45.478C74.3695 45.5096 73.2886 45.5101 72.1478 45.4793C71.547 45.4678 70.977 45.4712 70.4473 45.4896C69.2467 45.5141 68.0961 45.5687 66.9968 45.5938C64.745 45.6195 62.6912 45.7115 60.5275 45.76C60.046 45.772 59.6143 45.8141 58.9796 45.7415C58.3449 45.6688 58.3167 45.6594 58.2417 45.6142C58.0641 45.539 58.0103 45.466 58.0914 45.4105C58.2173 45.3586 58.4626 45.3297 58.7835 45.329C60.7177 45.2465 62.5523 45.1306 64.2757 44.982C65.0341 44.9523 65.6986 44.8916 66.2461 44.8021C66.6803 44.7404 67.1953 44.6996 67.775 44.6809C68.6182 44.6363 69.4972 44.6037 70.4085 44.5831C70.8325 44.572 71.193 44.539 71.4689 44.4859C71.7447 44.4329 71.9303 44.361 72.0147 44.2744L70.8975 43.9867C70.722 43.9733 70.5479 43.9617 70.3759 43.952L61.1034 44.1592L60.1851 44.1649C59.1787 44.1477 58.9327 44.1053 57.978 43.7721C60.1568 43.6937 61.8695 43.4652 62.9456 43.1093C62.687 43.0711 62.4219 43.0382 62.1564 43.0116C60.4152 42.9274 58.7692 42.9051 57.2819 42.9454C56.3984 42.9494 55.49 42.9384 54.5783 42.933C54.8449 42.7689 55.8664 42.8178 56.5322 42.7808C58.123 42.723 59.5297 42.6034 60.7074 42.426C61.1134 42.3569 61.6214 42.3126 62.208 42.2954C62.7951 42.2894 63.2855 42.2476 63.6366 42.1734C63.9877 42.0993 64.1887 41.9951 64.2222 41.87C64.2775 41.7567 64.3967 41.6515 64.578 41.5558C64.2573 41.42 63.7481 41.29 63.1459 41.1901C62.5437 41.0902 61.89 41.0274 61.3074 41.0133C60.0636 40.9574 58.7735 40.8659 57.47 40.7411C56.8207 40.6782 56.184 40.642 55.6013 40.6351C55.0874 40.6297 54.5032 40.5843 53.938 40.5056C53.3728 40.427 52.8574 40.3195 52.4706 40.1996C51.9485 40.0513 51.4612 39.9014 50.974 39.7514C50.4868 39.6015 49.9214 39.4121 49.3526 39.2281C48.8511 39.1994 48.3628 39.1809 47.8943 39.1729C47.5298 39.1797 47.1044 39.1596 46.6684 39.1152C46.2324 39.0707 45.8039 39.0036 45.4336 38.9219C45.6508 38.8413 45.8964 38.7702 46.155 38.6768C45.8 38.5535 45.5426 38.4278 45.3984 38.3073C45.2543 38.1868 45.2265 38.074 45.3167 37.9758C45.3694 37.8868 44.9835 37.7375 44.8501 37.6194C44.6784 37.5177 44.6462 37.4227 44.7576 37.347C44.869 37.2713 45.1188 37.2183 45.4744 37.1951C45.9154 37.1523 46.2743 37.0877 46.5364 37.0042C46.6231 36.9825 46.6672 36.9528 46.6648 36.9177C46.6623 36.8827 46.6133 36.8436 46.5223 36.8038C46.4312 36.764 46.3011 36.7249 46.1437 36.69C45.9863 36.6551 45.8067 36.6256 45.6213 36.6042C45.0534 36.5434 44.4894 36.504 43.9617 36.4882C43.0527 36.4592 42.1824 36.441 41.3509 36.4336C40.4313 36.4224 39.4083 36.3534 38.3857 36.2335C37.4701 36.1202 36.6493 36.0185 36.2016 35.8018C35.754 35.5851 35.0382 35.592 34.4878 35.4343C34.797 35.2921 35.3465 35.1933 36.0809 35.1479C36.5615 35.1316 36.9626 35.0891 37.2586 35.0229C37.5546 34.9567 37.7389 34.8684 37.7997 34.7635L36.1288 34.3237C34.7944 34.1166 34.0561 34.276 32.6142 34.193L34.0998 34.0306C34.1297 34.0145 34.1409 33.9957 34.1328 33.975C33.9886 33.6466 33.7591 33.5763 32.2404 33.3942L31.3881 33.2886L30.039 33.1634C29.8229 33.0961 29.6735 33.0259 29.6056 32.9598C29.5377 32.8938 29.5537 32.8342 29.6521 32.787C29.8498 32.7076 29.9098 32.6062 29.8269 32.4921C29.696 32.4165 29.6852 32.3468 29.7963 32.2951C29.9074 32.2435 30.1334 32.213 30.4351 32.2091C30.6759 32.2031 30.6938 32.1158 30.8248 32.0663C30.9549 31.9981 31.1777 31.9458 31.4778 31.9129C31.778 31.88 32.1485 31.8673 32.5643 31.8756C33.79 31.8825 34.9415 31.8569 35.9983 31.7993L35.8088 31.7759C36.9103 31.8264 37.9401 31.8325 38.848 31.7939C39.7578 31.7454 40.9255 31.7765 41.8919 31.7469C42.6786 31.7537 43.2776 31.6865 43.5617 31.5596C43.8368 31.4384 44.8367 31.4667 45.6024 31.4899C46.0559 31.5048 46.4943 31.5112 46.9128 31.5088C47.4745 31.4814 48.1768 31.5073 48.9026 31.5821C49.1204 31.6051 49.3349 31.6173 49.5256 31.6174C51.3707 31.6489 53.2125 31.6859 55.0327 31.7023C55.4529 31.6929 55.9455 31.7145 56.4529 31.7647C56.6661 31.7865 56.8737 31.7956 57.0476 31.7906C59.9237 31.7407 63.1692 31.868 65.9888 31.7992C66.3305 31.7829 66.7088 31.7795 67.1131 31.7891C68.0214 31.8296 68.8101 31.8035 69.3596 31.715C69.6561 31.6679 70.0362 31.642 70.4757 31.6389C70.9151 31.6357 71.4043 31.6554 71.912 31.6967C72.7569 31.7514 73.5378 31.7573 74.1723 31.7139C75.4093 31.6737 76.7102 31.6572 78.0648 31.6645C78.4798 31.6715 78.8446 31.6559 79.131 31.6189C79.4174 31.5819 79.6176 31.5244 79.7162 31.451C79.3835 31.3262 79.0198 31.311 78.6744 31.322C77.3358 31.2935 76.0004 31.2595 74.6867 31.2461C73.5109 31.2078 72.3827 31.1961 71.3187 31.2112C70.7904 31.2281 70.1311 31.1894 69.4848 31.1035C68.6927 30.9946 67.8769 30.9405 67.2023 30.9522C66.7022 30.9551 66.1743 30.9457 65.6262 30.9242C65.2754 30.8982 64.9159 30.8537 64.5844 30.7952C64.4529 30.7697 64.3098 30.7483 64.1641 30.7324C64.0185 30.7164 63.8737 30.7062 63.7389 30.7024C63.604 30.6986 63.4819 30.7014 63.3808 30.7104C63.2796 30.7195 63.2014 30.7346 63.1511 30.755C62.6437 30.925 61.509 30.8383 60.5374 30.8194C59.0814 30.5316 57.9978 30.702 56.637 30.5394C56.5294 30.5286 56.4233 30.5221 56.3254 30.5202C56.2274 30.5184 56.1396 30.5212 56.0673 30.5286C53.4338 30.6264 50.3645 30.5449 47.5996 30.5787C47.2947 30.5836 46.9408 30.5667 46.5781 30.5298C44.2078 30.2856 41.9289 30.2163 40.1869 30.3354C39.9749 30.3461 39.7338 30.3466 39.4745 30.3367C38.2834 30.2397 37.1444 30.201 36.1526 30.2239C34.5981 30.2165 33.1036 30.2225 31.5241 30.2001C30.4354 30.1682 29.4803 30.2023 28.7545 30.299C28.7314 30.3379 28.2479 30.296 27.8776 30.2919C27.6646 30.1939 27.4799 30.1053 27.2603 30.0184C27.064 29.9108 26.77 29.802 26.3982 29.6993C26.0264 29.5966 25.5856 29.5024 25.1055 29.423C24.2847 29.3214 24.2026 29.1739 24.777 29.1196C26.2574 28.94 28.1189 28.8665 30.2248 28.9045C31.9851 28.9075 33.7771 28.9145 35.5624 28.9326C36.6038 28.9481 37.7015 28.9825 38.7146 28.9885C39.0564 29.0018 39.4076 29.0213 39.7644 29.0469C40.2023 29.084 40.6274 29.1042 41.0169 29.1065C42.2675 29.0752 43.6632 29.1024 45.1374 29.1868C45.6774 29.2052 46.1959 29.2114 46.6852 29.2053C47.8429 29.1824 49.0979 29.1993 50.417 29.2555C51.2369 29.2871 52.0319 29.3037 52.7937 29.305C53.0628 29.3084 53.2819 29.2818 53.541 29.302C55.8221 29.5128 57.4373 29.3605 59.4902 29.4416C60.488 29.4642 61.4413 29.4643 62.3367 29.4418C64.084 29.4429 65.8801 29.466 67.7176 29.5111C70.1475 29.5851 72.3993 29.5594 74.7194 29.59C75.1775 29.5964 75.6198 29.5953 76.043 29.5867C78.102 29.5298 80.3384 29.5419 82.6976 29.6226C83.2333 29.6342 83.7144 29.62 84.1109 29.5807C84.5073 29.5414 84.8106 29.478 85.0016 29.3943C85.0824 29.3369 85.0301 29.2624 84.8546 29.185C84.5634 29.0863 84.2346 28.9895 83.8735 28.8963L70.741 28.5836C70.1894 28.5673 69.6515 28.5585 69.1301 28.5573C67.5963 28.5546 66.0154 28.5303 64.3951 28.4845C62.794 28.4414 61.2645 28.4491 59.7133 28.4361C59.2565 28.4318 58.7875 28.4215 58.3083 28.4054C55.0696 28.2779 51.9115 28.2 48.8562 28.1723C47.5709 28.1684 46.1823 28.1099 44.8719 28.0909C43.5615 28.072 41.7696 28.065 40.2151 28.0576L35.4025 28.0588C34.4559 28.055 33.5342 28.0662 32.6159 28.0719C31.5015 27.6652 31.1174 27.5698 29.6303 27.3916C29.1216 27.3259 28.6041 27.2867 28.1386 27.2785C26.6624 27.3107 24.8101 27.1768 23.4102 27.1946C22.5655 27.1858 21.8487 27.231 21.3333 27.3255C20.8858 27.3997 20.3741 27.4583 19.8061 27.5006C18.2502 27.1527 18.1131 26.9267 19.2835 26.8387C19.6006 26.8183 20.0374 26.8246 20.2664 26.7813C20.3978 26.7549 20.5773 26.7398 20.7905 26.7372C21.0038 26.7346 21.245 26.7446 21.4952 26.7663C22.2847 26.8232 23.0247 26.8366 23.641 26.8051C24.221 26.7634 24.9319 26.7651 25.7052 26.8099C26.2735 26.8803 26.773 26.781 27.2644 26.7522C27.7558 26.7235 28.1591 26.6719 28.9267 26.7491C29.0673 26.7645 29.2068 26.7737 29.3346 26.7761C29.4625 26.7784 29.5752 26.7739 29.6641 26.7628C30.4885 26.7131 31.4723 26.7183 32.5356 26.778C34.1663 26.8368 35.6963 26.839 37.0726 26.7846C37.8964 26.7369 38.5989 26.6525 39.1524 26.5345C39.3033 26.4951 39.5273 26.4714 39.803 26.4658C41.1878 26.4904 42.6913 26.5831 44.2167 26.7378C44.7914 26.7997 45.3653 26.8488 45.9262 26.8838C47.079 26.9616 48.194 27.0052 49.2382 27.0133C50.7554 27.0146 52.3351 27.0445 53.9633 27.1029C54.968 27.1353 55.9362 27.1473 56.8563 27.1387C57.802 27.1346 58.8117 27.1594 59.8625 27.2124C60.9076 27.2556 61.8285 27.2307 62.5143 27.1407C62.7402 27.0922 62.9221 27.0346 63.0566 26.969C61.5265 26.7555 59.9441 26.647 58.6279 26.6654C58.1279 26.6512 57.7128 26.6655 57.186 26.5823L57.1695 26.6101C57.0647 26.6282 56.9065 26.6325 56.7252 26.6221C56.5438 26.6118 56.352 26.5875 56.1862 26.554C56.2488 26.4483 56.3082 26.3482 56.3511 26.2759C57.3539 26.2886 58.3276 26.2876 59.2673 26.2728C60.0593 26.2514 61.1346 26.4383 61.8201 26.368C63.1574 26.456 64.0088 26.3345 65.208 26.3695C66.4071 26.4046 67.7279 26.5204 68.9271 26.5555C69.9735 26.5747 70.9895 26.5789 71.9695 26.568C72.3078 26.5527 72.6977 26.5563 73.1154 26.5785C73.7026 26.6204 74.2488 26.6274 74.6913 26.5988C75.1338 26.5701 75.4547 26.507 75.6174 26.4166C75.4642 26.3319 75.2579 26.2228 75.0199 26.1097C75.4577 26.0168 76.1225 25.9777 76.9159 25.9982L78.0369 25.9937C78.3339 25.9961 78.561 25.971 78.6711 25.9235C78.7813 25.876 78.7661 25.8098 78.6286 25.7385C76.5031 25.3797 76.4248 25.3401 74.8647 25.5709L72.7934 25.4637L72.8283 25.462ZM100.845 26.4477L100.687 26.4281L100.845 26.4477ZM358.978 64.623L358.942 64.6842L358.981 64.6174L359.328 64.6604L359.351 64.6215L358.978 64.623ZM308.557 37.799C308.067 37.7322 307.571 37.6708 307.074 37.6152C306.943 37.6066 306.822 37.6046 306.718 37.6095C306.615 37.6144 306.534 37.626 306.481 37.6433C306.441 37.7101 306.719 37.7564 306.971 37.7877C307.29 37.8298 307.615 37.8565 307.914 37.8652C308.213 37.8738 308.474 37.8641 308.671 37.8369L308.956 37.8125L308.557 37.799ZM55.7375 54.0709C56.0607 54.0821 56.3671 54.084 56.6493 54.0763C57.9012 54.0224 59.0998 53.9439 60.3833 53.8938C62.0028 53.7668 63.8637 53.715 65.8962 53.7405C66.6903 53.753 67.3611 53.7118 67.8305 53.6218C68.1114 53.5735 68.4741 53.5452 68.8962 53.5388L74.2696 53.3921C74.6017 53.3617 74.8889 53.319 75.1243 53.2651C74.6508 53.2064 74.3351 53.1673 74.1457 53.1439C73.7526 53.1373 73.4148 53.1551 73.1661 53.1957C72.8989 53.2645 72.4473 53.2917 71.9009 53.2719C71.3494 53.2556 70.8115 53.2468 70.29 53.2456C69.3052 53.249 68.3138 53.2636 67.3257 53.2726C66.9412 53.4639 65.8066 53.3771 64.835 53.3583L64.0844 53.3668C61.6309 53.466 59.2872 53.6024 57.0648 53.7754C56.6352 53.8047 56.2652 53.8514 55.966 53.9141C55.8533 53.9629 55.8172 54.0239 55.8605 54.0921L55.7027 54.0725L55.7375 54.0709ZM165.301 72.3585C165.897 72.3715 166.516 72.3983 167.152 72.4384C167.641 72.4793 168.119 72.5042 168.565 72.5119C171.068 72.5548 173.676 72.6538 176.354 72.8077C176.704 72.831 177.04 72.8424 177.35 72.8415L179.542 72.8025C180.233 72.7805 180.246 72.7583 179.743 72.4631C179.326 72.4058 178.904 72.3535 178.48 72.3067C178.228 72.2754 177.818 72.2246 177.721 72.2724C177.136 72.4029 176.068 72.3184 175.169 72.2907C172.568 72.2194 169.886 72.1141 167.26 72.0277C166.704 72.0066 166.167 71.9959 165.652 71.9958C165.332 71.9914 165.041 71.9997 164.79 72.0205C164.717 72.0226 164.655 72.0288 164.61 72.0386C164.565 72.0484 164.536 72.0617 164.527 72.0774C164.517 72.0932 164.527 72.1112 164.556 72.1302C164.584 72.1491 164.63 72.1686 164.691 72.1874C164.906 72.2531 165.154 72.316 165.428 72.3741L165.301 72.3585ZM184.355 29.5168L186.917 29.4818C187.224 29.478 187.485 29.4386 187.814 29.4555C189.568 29.5089 191.193 29.494 192.618 29.4115C193.103 29.3778 193.671 29.3711 194.29 29.3917C196.186 29.4526 197.974 29.4551 199.606 29.3991C200.661 29.3879 201.648 29.3501 202.553 29.2864C202.623 29.2716 202.666 29.2515 202.681 29.2275C202.695 29.2035 202.68 29.1762 202.636 29.1473C202.624 29.1291 202.593 29.1095 202.545 29.0898C202.496 29.0702 202.432 29.051 202.355 29.0336C202.278 29.0161 202.192 29.0009 202.101 28.9888C202.01 28.9768 201.918 28.9683 201.83 28.9638C200.686 28.8776 199.601 28.8475 198.662 28.8761C197.792 28.9103 196.855 28.9204 195.866 28.906C194.919 28.9022 194.277 29.0138 193.107 28.9287C192.613 28.9006 192.176 28.9099 191.872 28.9548C191.259 29.0293 190.404 29.0334 189.459 28.9665C188.893 28.9326 188.353 28.9181 187.858 28.9235C186.657 28.948 185.51 28.997 184.398 29.0443C184.047 29.0553 183.671 29.0568 183.277 29.0488L177.706 28.9561C176.368 28.9277 175.032 28.8937 173.719 28.8803C172.644 28.8511 171.644 28.8603 170.754 28.9073C169.805 28.9567 168.771 28.9767 167.669 28.9671C165.959 28.9941 164.258 29.0045 162.396 29.0008C161.209 29.0031 159.993 28.9958 158.753 28.9736C158.125 28.9449 157.592 28.9682 157.257 29.0391C157.053 29.0974 156.573 29.0499 156.174 29.0364C154.048 28.9059 152.054 28.8749 150.331 28.9458C150.111 28.9573 149.87 28.9615 149.612 28.9582C147.953 28.9558 146.234 28.94 144.642 28.9398C144.222 28.9453 143.828 28.9604 143.463 28.9849C143.502 29.0249 143.613 29.0682 143.774 29.1059C143.935 29.1436 144.132 29.1727 144.326 29.1873C145.832 29.299 147.286 29.358 148.628 29.3618C150.86 29.3476 153.199 29.3795 155.62 29.4574C157.498 29.5359 159.21 29.5193 160.63 29.409C161.739 29.3267 163.183 29.3577 164.712 29.4966C165.366 29.563 166.002 29.5895 166.531 29.5726C167.04 29.5504 167.624 29.5558 168.25 29.5884C169.568 29.6504 170.836 29.6792 172.028 29.6742C173.194 29.6513 174.281 29.5889 175.479 29.57C176.676 29.5511 178.499 29.5619 179.976 29.5298C181.452 29.4976 182.912 29.4933 184.355 29.5168ZM78.1825 26.2625C78.3178 26.4345 78.7965 26.5416 79.3116 26.5875C81.0871 26.7912 82.8425 26.8778 84.283 26.833C85.0611 26.7704 86.0985 26.7945 87.1912 26.9005C88.4635 27.0108 89.6527 27.0291 90.5493 26.9521C90.769 26.9387 90.9371 26.9103 91.0389 26.8695C91.0587 26.8361 91.0949 26.7749 91.1015 26.7637C91.0073 26.7355 90.8918 26.7094 90.7639 26.6873C90.6359 26.6653 90.499 26.6479 90.3637 26.6365L84.4823 26.4396L83.4574 26.3963C81.5854 26.2828 79.8016 26.2375 78.1825 26.2625ZM89.7511 28.9853C90.669 29.2662 90.6722 29.2606 91.1425 29.3248C93.4112 29.5915 95.6783 29.7355 97.6741 29.7396C98.1177 29.7388 98.4942 29.7117 98.7716 29.6606C98.9144 29.6536 99.0052 29.6316 99.0244 29.5993C99.0435 29.567 98.9894 29.527 98.8738 29.4881L98.1439 29.2902C96.8183 29.2045 95.5118 29.1364 94.2321 29.0864C92.7422 29.0273 91.4219 29.025 89.8773 29.0009L89.7511 28.9853ZM165.191 71.1147C166.047 71.5013 166.05 71.4957 167.482 71.5954C168.48 71.6661 169.448 71.7076 170.357 71.7186C171.468 71.7308 172.607 71.7525 173.715 71.7702C173.986 71.7826 174.215 71.7723 174.359 71.7416C174.502 71.7108 174.55 71.6616 174.492 71.6037C174.346 71.5407 174.119 71.4799 173.846 71.4309C173.574 71.382 173.272 71.3479 172.991 71.3342L172.386 71.325C171.652 71.3057 170.89 71.277 170.181 71.2728C169.721 71.2888 169.188 71.2764 168.623 71.2366C168.059 71.1967 167.479 71.1305 166.928 71.0431L165.191 71.1147ZM94.3183 26.768C94.5467 26.835 94.805 26.8991 95.0863 26.9587C96.1757 27.1239 97.3287 27.2177 98.3192 27.2217C98.7876 27.232 99.2159 27.1954 99.6927 27.2485C100.548 27.3195 101.377 27.3572 102.134 27.3598C102.134 27.3598 102.347 27.3443 102.417 27.341L102.562 27.0962C102.203 27.0395 101.829 26.9932 101.457 26.9594C100.208 26.8943 98.9802 26.8497 97.7561 26.7996C96.5319 26.7496 96.1051 26.7265 95.3045 26.705C94.9474 26.7169 94.6171 26.738 94.3183 26.768ZM67.268 57.201L68.9027 57.702C69.4317 57.7456 69.9258 57.7534 70.31 57.7245C70.6942 57.6955 70.9473 57.6313 71.0309 57.5416C71.1655 57.4996 71.179 57.4374 71.0685 57.3681C70.958 57.2987 70.732 57.2276 70.4381 57.1696C70.1552 57.1008 69.8323 57.0392 69.4893 56.9885C69.1462 56.9378 68.7905 56.8991 68.4441 56.8748L67.268 57.201ZM80.8782 54.7063C79.809 54.6213 78.7864 54.5866 77.8885 54.6047C77.3228 54.6544 76.5563 54.6386 75.7461 54.5603C74.2727 54.4045 72.8523 54.3613 71.7848 54.44C71.7848 54.44 71.7452 54.5067 71.5642 54.5261C71.3833 54.5455 72.1009 54.5926 72.2588 54.6122C73.4165 54.66 74.5808 54.6967 75.5873 54.7139C76.2121 54.7131 76.873 54.7289 77.5587 54.761C78.5021 54.8104 79.3967 54.8264 80.2077 54.8084C80.2077 54.8084 80.5215 54.7935 80.8749 54.7118L80.8782 54.7063ZM195.059 28.609C194.548 28.5147 193.995 28.438 193.439 28.3847C192.884 28.3314 192.341 28.303 191.853 28.3015C191.478 28.2965 191.175 28.3215 190.992 28.3723C190.808 28.4231 190.754 28.4969 190.839 28.582C191.218 28.629 191.723 28.6915 192.007 28.7267C192.992 28.7233 193.832 28.678 195.059 28.609ZM290.653 36.5609C290.243 36.4849 289.792 36.4269 289.351 36.3933C288.909 36.3597 288.495 36.352 288.156 36.3711C287.982 36.3794 288.1 36.4657 288.071 36.5157C288.051 36.5271 288.052 36.5412 288.071 36.5566C288.091 36.572 288.13 36.5882 288.183 36.6033C288.237 36.6185 288.303 36.6321 288.375 36.6428C288.447 36.6535 288.522 36.6608 288.593 36.664C289.037 36.6967 289.457 36.7065 289.814 36.6924C290.171 36.6783 290.455 36.6407 290.64 36.5831L290.653 36.5609ZM297.058 37.6468C296.995 37.602 296.86 37.5553 296.678 37.5152C296.497 37.4752 296.28 37.4445 296.069 37.4287C295.696 37.4266 295.357 37.4391 295.065 37.4656C294.747 37.486 294.976 37.6158 295.404 37.6928C295.586 37.7237 295.78 37.7478 295.971 37.7632C296.162 37.7786 296.345 37.7848 296.505 37.7814C296.665 37.7781 296.797 37.7651 296.892 37.7437C296.987 37.7222 297.042 37.6929 297.052 37.6579L297.058 37.6468ZM110.946 27.2448C109.99 27.0846 109.255 27.1249 108.445 27.0605C107.636 26.9962 107.437 26.9894 107.545 27.0924C107.654 27.1954 108.208 27.1745 108.556 27.2175C109.025 27.2746 109.497 27.3074 109.919 27.3122C110.341 27.317 110.697 27.2937 110.946 27.2448ZM310.071 54.3435C309.565 54.3076 309.069 54.2822 308.591 54.2677C308.528 54.2826 308.488 54.3021 308.475 54.325C308.461 54.348 308.474 54.3739 308.512 54.4013C308.512 54.4013 308.836 54.4832 309.025 54.5067C309.723 54.5871 309.757 54.4719 310.071 54.3435ZM381.608 69.2652C381.951 69.3733 382.111 69.4468 382.385 69.4987C382.511 69.5167 382.641 69.5298 382.766 69.537C382.891 69.5442 383.007 69.5453 383.106 69.5402C383.226 69.5091 383.255 69.4614 383.185 69.4067C383.185 69.4067 382.836 69.3097 382.703 69.3052C382.324 69.2823 381.956 69.2689 381.608 69.2652ZM94.6801 26.3291C93.954 26.2392 93.2594 26.1531 92.7567 26.2581C93.9097 26.371 93.9098 26.371 94.6801 26.3291ZM106.441 27.3557C105.707 27.1634 105.277 27.1459 104.925 27.168C104.85 27.1736 104.801 27.186 104.784 27.2033C104.767 27.2207 104.784 27.2421 104.833 27.2642C104.881 27.2864 104.957 27.3081 105.051 27.3261C105.145 27.3441 105.25 27.3575 105.351 27.3641C105.734 27.3696 106.098 27.3668 106.441 27.3557ZM144.177 27.437C144.193 27.4092 144.213 27.3758 144.024 27.3524C143.974 27.3404 143.916 27.3302 143.855 27.3227C143.794 27.3151 143.732 27.3105 143.677 27.3094C143.677 27.3094 143.657 27.3427 143.644 27.365L144.177 27.437ZM170.382 73.6208L169.96 73.6462L170.15 73.6696L170.65 73.6838L170.382 73.6208ZM318.868 37.2127C318.71 37.1932 318.552 37.1736 318.529 37.2126C318.496 37.2186 318.475 37.2273 318.469 37.2379C318.462 37.2486 318.471 37.2609 318.493 37.2738C318.493 37.2738 318.714 37.3011 318.808 37.3129L318.868 37.2127ZM294.284 37.5242C294.18 37.522 294.087 37.5246 294.009 37.5319L293.989 37.5652L294.305 37.6044L294.284 37.5242ZM80.0444 45.4779C79.9225 45.4576 79.7932 45.4416 79.6656 45.431L79.5077 45.4114C79.5077 45.4114 79.6773 45.4683 79.772 45.48C79.8667 45.4917 79.9431 45.4773 80.0444 45.4779Z" fill="#DF6951"/>
</svg>
